<svg width="185" height="53" viewBox="0 0 185 53" fill="none" xmlns="http://www.w3.org/2000/svg">
<g clip-path="url(#clip0_3992_2137)">
<path fill-rule="evenodd" clip-rule="evenodd" d="M114.77 41.448C104.02 48.9812 88.4374 53.0004 75.0212 53.0004C56.2095 53.0004 39.2742 46.3859 26.462 35.3847C25.4554 34.5196 26.3573 33.3407 27.5653 34.0144C41.3921 41.6624 58.4885 46.2634 76.1486 46.2634C88.0589 46.2634 101.161 43.9208 113.208 39.0594C115.028 38.3245 116.55 40.1925 114.77 41.448" fill="#FF9900"/>
<path fill-rule="evenodd" clip-rule="evenodd" d="M119.239 36.5865C117.87 34.9176 110.156 35.798 106.693 36.1884C105.638 36.3109 105.477 35.4382 106.427 34.8104C112.571 30.6993 122.654 31.886 123.829 33.264C125.005 34.6497 123.523 44.2575 117.75 48.8432C116.864 49.5475 116.018 49.1724 116.413 48.2384C117.709 45.1608 120.616 38.2631 119.239 36.5865" fill="#FF9900"/>
<path fill-rule="evenodd" clip-rule="evenodd" d="M106.935 5.78657V1.79033C106.935 1.18553 107.418 0.779785 107.998 0.779785H126.817C127.421 0.779785 127.904 1.19319 127.904 1.79033V5.2124C127.896 5.78657 127.389 6.53682 126.487 7.72345L116.735 20.96C120.359 20.8758 124.184 21.3888 127.47 23.1496C128.21 23.5476 128.412 24.1295 128.468 24.7037V28.9678C128.468 29.5497 127.792 30.231 127.083 29.8789C121.293 26.9927 113.602 26.6788 107.2 29.9095C106.548 30.2463 105.864 29.5726 105.864 28.9908V24.941C105.864 24.2902 105.872 23.1802 106.556 22.1926L117.854 6.78946H108.022C107.418 6.78946 106.935 6.38371 106.935 5.78657" fill="#2E3E4E"/>
<path fill-rule="evenodd" clip-rule="evenodd" d="M38.2857 30.7219H32.5601C32.0125 30.6836 31.5776 30.2932 31.5374 29.7956V1.8602C31.5374 1.30134 32.0286 0.857307 32.6406 0.857307H37.9797C38.5354 0.880259 38.9783 1.28602 39.0185 1.79129V5.44303H39.1232C40.5164 1.91378 43.1336 0.267822 46.6608 0.267822C50.2443 0.267822 52.483 1.91378 54.0936 5.44303C55.4787 1.91378 58.6274 0.267822 62.0016 0.267822C64.4014 0.267822 67.0266 1.20946 68.6291 3.32242C70.4411 5.6727 70.0706 9.08711 70.0706 12.0805L70.0626 29.7114C70.0626 30.2702 69.5713 30.7219 68.9593 30.7219H63.2417C62.67 30.6836 62.211 30.2473 62.211 29.7114V14.9054C62.211 13.7264 62.3237 10.7867 62.0499 9.66894C61.6231 7.79331 60.3427 7.26507 58.6838 7.26507C57.2987 7.26507 55.8491 8.14547 55.2613 9.55411C54.6734 10.9627 54.7298 13.3207 54.7298 14.9054V29.7114C54.7298 30.2702 54.2386 30.7219 53.6265 30.7219H47.909C47.3292 30.6836 46.8782 30.2473 46.8782 29.7114L46.8701 14.9054C46.8701 11.7895 47.4097 7.20382 43.343 7.20382C39.2279 7.20382 39.389 11.6747 39.389 14.9054V29.7114C39.389 30.2702 38.8977 30.7219 38.2857 30.7219Z" fill="#2E3E4E"/>
<path fill-rule="evenodd" clip-rule="evenodd" d="M144.108 0.267822C152.604 0.267822 157.202 7.20383 157.202 16.0231C157.202 24.5438 152.121 31.3038 144.108 31.3038C135.765 31.3038 131.224 24.3678 131.224 15.7245C131.224 7.02774 135.822 0.267822 144.108 0.267822V0.267822ZM144.157 5.97127C139.937 5.97127 139.671 11.4374 139.671 14.8441C139.671 18.2586 139.615 25.5467 144.108 25.5467C148.546 25.5467 148.755 19.6672 148.755 16.0844C148.755 13.7264 148.65 10.9092 147.901 8.6737C147.257 6.72918 145.977 5.97127 144.157 5.97127" fill="#2E3E4E"/>
<path fill-rule="evenodd" clip-rule="evenodd" d="M168.218 30.7219H162.517C161.945 30.6836 161.486 30.2473 161.486 29.7114L161.478 1.76833C161.526 1.2554 162.001 0.857307 162.581 0.857307H167.888C168.387 0.880259 168.798 1.20181 168.911 1.63818V5.91002H169.015C170.618 2.08986 172.865 0.267822 176.819 0.267822C179.387 0.267822 181.892 1.14822 183.502 3.55974C185 5.79519 185 9.5541 185 12.2565V29.8415C184.936 30.3315 184.461 30.7219 183.897 30.7219H178.155C177.632 30.6836 177.197 30.3162 177.141 29.8415V14.6681C177.141 11.6135 177.511 7.14258 173.557 7.14258C172.164 7.14258 170.884 8.03064 170.247 9.37802C169.442 11.0852 169.337 12.7848 169.337 14.6681V29.7114C169.329 30.2702 168.83 30.7219 168.218 30.7219" fill="#2E3E4E"/>
<path fill-rule="evenodd" clip-rule="evenodd" d="M91.9339 17.3778C91.9339 19.4984 91.9903 21.2669 90.8629 23.1501C89.9529 24.6813 88.5033 25.6229 86.9008 25.6229C84.7024 25.6229 83.4139 24.0305 83.4139 21.6803C83.4139 17.041 87.7866 16.1988 91.9339 16.1988V17.3778V17.3778ZM97.7078 30.645C97.3294 30.9665 96.7818 30.9895 96.355 30.7752C94.4545 29.2747 94.1082 28.578 93.0694 27.1464C89.9287 30.1933 87.698 31.1044 83.6313 31.1044C78.8076 31.1044 75.063 28.2794 75.063 22.6219C75.063 18.2046 77.5755 15.1959 81.1671 13.7261C84.2755 12.4246 88.6161 12.1949 91.9339 11.8351V11.1308C91.9339 9.837 92.0386 8.30587 91.2333 7.18816C90.5407 6.18526 89.2039 5.77186 88.0202 5.77186C85.8378 5.77186 83.8971 6.83599 83.4219 9.04081C83.3253 9.53078 82.9468 10.0131 82.4234 10.036L76.8749 9.46953C76.4078 9.37001 75.8844 9.01019 76.0213 8.32885C77.2937 1.92874 83.3817 -0.000488281 88.8255 -0.000488281C91.6118 -0.000488281 95.2517 0.703831 97.4502 2.70961C100.236 5.18238 99.9707 8.48195 99.9707 12.0724V20.5549C99.9707 23.1042 101.082 24.2219 102.129 25.6C102.491 26.0899 102.572 26.6794 102.105 27.0469C100.937 27.9732 98.8594 29.6957 97.7159 30.6603L97.7078 30.645" fill="#2E3E4E"/>
<path fill-rule="evenodd" clip-rule="evenodd" d="M16.8709 17.3798C16.8709 19.5004 16.9273 21.2688 15.7999 23.1521C14.8899 24.6832 13.4484 25.6249 11.8378 25.6249C9.63936 25.6249 8.35894 24.0325 8.35894 21.6822C8.35894 17.0429 12.7317 16.2008 16.8709 16.2008V17.3798V17.3798ZM22.6448 30.647C22.2664 30.9685 21.7188 30.9915 21.2919 30.7771C19.3915 29.2766 19.0532 28.58 18.0064 27.1484C14.8657 30.1953 12.6431 31.1063 8.56832 31.1063C3.75266 31.1063 0 28.2814 0 22.6239C0 18.2066 2.52057 15.1979 6.10412 13.728C9.21255 12.4266 13.5531 12.1969 16.8709 11.8371V11.1328C16.8709 9.83896 16.9756 8.30783 16.1783 7.19011C15.4777 6.18722 14.141 5.77382 12.9652 5.77382C10.7829 5.77382 8.83407 6.83795 8.35894 9.04277C8.26231 9.53274 7.88382 10.015 7.36843 10.038L1.81191 9.47149C1.34484 9.37197 0.829451 9.01215 0.958298 8.3308C2.23871 1.93069 8.31868 0.00146484 13.7625 0.00146484C16.5488 0.00146484 20.1887 0.705785 22.3871 2.71156C25.1735 5.18433 24.9077 8.48391 24.9077 12.0744V20.5569C24.9077 23.1062 26.019 24.2239 27.0659 25.6019C27.4363 26.0919 27.5169 26.6814 27.0498 27.0488C25.8821 27.9752 23.8045 29.6977 22.6609 30.6623L22.6448 30.647" fill="#2E3E4E"/>
</g>
<defs>
<clipPath id="clip0_3992_2137">
<rect width="185" height="53" fill="white"/>
</clipPath>
</defs>
</svg>
