<svg width="111" height="40" viewBox="0 0 111 40" fill="none" xmlns="http://www.w3.org/2000/svg">
<path fill-rule="evenodd" clip-rule="evenodd" d="M38.1139 20.0019C38.2805 15.1226 31.1904 11 22.9925 11C14.7952 11 7.87061 15.1202 7.87061 20.0019C7.87061 24.8811 14.7952 29 22.9925 29C26.4972 29 29.7617 28.2414 32.36 26.9989C31.3296 27.2096 30.2066 27.3271 29.0291 27.3271C24.0408 27.3271 19.9976 25.2564 19.9976 22.7091C19.9976 20.1537 24.0408 18.0864 29.0291 18.0864C31.2262 18.0864 33.1919 18.41 34.8075 19.1571C34.9907 19.2411 35.5682 19.5599 35.7125 19.8466C35.4261 19.7032 34.8853 19.5435 34.4627 19.4983C32.1562 19.2493 31.0841 20.1138 30.7565 20.8535C30.2822 21.9219 31.1188 23.2722 33.1722 23.4592C35.4261 23.6653 36.7416 22.9641 37.5143 21.8999C37.842 21.4491 38.0873 20.7503 38.1139 20.0019Z" fill="white"/>
<path fill-rule="evenodd" clip-rule="evenodd" d="M64.4581 14.0279C65.8411 14.0279 66.9543 14.9798 66.9543 16.1642V24.8304C66.9543 26.0148 65.8411 26.9664 64.4581 26.9664H58.8756C57.4903 26.9664 56.3789 26.0148 56.3789 24.8304V16.1642C56.3789 14.9798 57.4903 14.0279 58.8756 14.0279H64.4581ZM100.91 14.0279L104.09 26.9664H100.732L100.111 24.1674H95.4065L94.7883 26.9664H91.4287L94.6039 14.0279H100.91ZM50.8896 14.0279C52.2735 14.0279 53.3862 14.9797 53.3862 16.1642V18.5735H50.1638V16.7875C50.1638 16.671 50.0728 16.5929 49.9364 16.5929H46.7137C46.5778 16.5929 46.4873 16.671 46.4873 16.7875V24.2092C46.4873 24.3255 46.5778 24.4025 46.7137 24.4025H49.9364C50.0728 24.4025 50.1638 24.3255 50.1638 24.2092V22.1299H53.3862V24.8304C53.3862 26.0148 52.2735 26.9664 50.8896 26.9664H45.6928C44.3092 26.9664 43.196 26.0148 43.196 24.8304V16.1642C43.196 14.9797 44.3092 14.0279 45.6928 14.0279H50.8896ZM77.4967 14.0281C78.8817 14.0281 79.9928 14.9797 79.9928 16.1641V17.8751H76.7698V16.7875C76.7698 16.6709 76.6798 16.5929 76.5438 16.5929H73.5027C73.3661 16.5929 73.2755 16.6709 73.2755 16.7875V18.4576C73.2755 18.613 73.3891 18.67 73.5257 18.7098C73.7522 18.7685 75.0453 19.0796 78.0411 19.797C79.3348 20.1097 80.0835 20.6341 80.0835 21.8181V24.8303C80.0835 26.0147 78.9717 26.9663 77.588 26.9663H72.4598C71.0749 26.9663 69.9631 26.0147 69.9631 24.8303V23.1003H73.1849V24.2091C73.1849 24.3255 73.2755 24.4024 73.4121 24.4024H76.5885C76.7245 24.4024 76.8164 24.3255 76.8164 24.2091V22.4014C76.8164 22.266 76.7015 22.1881 76.5215 22.149C76.1348 22.0518 74.933 21.7593 72.119 21.0811C70.78 20.749 70.0084 20.2458 70.0084 19.0605V16.1641C70.0084 14.9797 71.1202 14.0281 72.5045 14.0281H77.4967ZM91.6223 14.0281V16.5928H88.1411V26.9663H84.8504V16.5928H81.3697V14.0281H91.6223ZM63.4374 16.593H59.8962C59.761 16.593 59.67 16.671 59.67 16.7875V24.2093C59.67 24.3255 59.761 24.4025 59.8962 24.4025H63.4374C63.5727 24.4025 63.6638 24.3255 63.6638 24.2093V16.7875C63.6638 16.671 63.5727 16.593 63.4374 16.593ZM98.4285 16.5743H97.0851L95.9553 21.6847H99.5614L98.4285 16.5743ZM102.839 14.0602C103.029 14.0602 103.191 14.1283 103.326 14.2644C103.462 14.4007 103.529 14.5644 103.529 14.7561C103.529 14.9462 103.461 15.1094 103.326 15.2464C103.19 15.3828 103.027 15.451 102.837 15.451C102.645 15.451 102.481 15.3828 102.345 15.2464C102.209 15.1094 102.141 14.9458 102.141 14.7552C102.141 14.5639 102.208 14.4007 102.345 14.2644C102.481 14.1283 102.645 14.0602 102.839 14.0602ZM102.838 14.1719C102.679 14.1719 102.544 14.2286 102.432 14.3433C102.321 14.4576 102.265 14.5949 102.265 14.7552C102.265 14.9166 102.321 15.0543 102.433 15.1686C102.545 15.2825 102.679 15.3394 102.836 15.3394C102.991 15.3394 103.125 15.2825 103.237 15.1686C103.349 15.0543 103.405 14.9166 103.405 14.7552C103.405 14.5953 103.349 14.4585 103.238 14.3438C103.126 14.229 102.993 14.1719 102.838 14.1719ZM102.882 14.3556C102.984 14.3556 103.061 14.3776 103.111 14.4221C103.161 14.4663 103.185 14.5232 103.185 14.5926C103.185 14.6925 103.136 14.763 103.036 14.8037L103.184 15.1555H103.004L102.874 14.8324H102.682V15.1555H102.511V14.3556H102.882ZM102.871 14.4814H102.682V14.7052H102.858C102.958 14.7052 103.008 14.6669 103.008 14.5908C103.008 14.5179 102.963 14.4814 102.871 14.4814Z" fill="white"/>
</svg>
