<svg width="70" height="40" viewBox="0 0 70 40" fill="none" xmlns="http://www.w3.org/2000/svg">
<path fill-rule="evenodd" clip-rule="evenodd" d="M11.0995 5.99839L10.0925 5.94637L9.6774 5.86335L9.59438 5.70755C9.59438 5.56226 9.69815 5.5 9.90598 5.5H20.3194C25.199 5.5 28.6249 6.98466 30.6185 9.96423C31.7606 11.6877 32.3314 13.733 32.3314 16.1002C32.3314 17.3358 32.1447 18.5296 31.7603 19.6819C31.3244 20.8968 30.7223 21.9663 29.9435 22.9216C29.092 23.9284 28.054 24.7074 26.8599 25.2783C25.5828 25.8597 24.1502 26.1608 22.541 26.1608H9.26202C9.04396 26.1608 8.94019 26.088 8.94019 25.9637C8.94019 25.8287 9.09599 25.7562 9.38655 25.7562L11.9303 25.6007C12.3249 25.5484 12.6052 25.4341 12.7403 25.2785L12.9998 24.9149C13.0934 24.6661 13.1454 24.2926 13.1556 23.7836V7.31702C13.1556 6.67334 12.7923 6.27872 12.0864 6.12292L11.0995 5.99839ZM16.7061 6.27872L16.6333 6.6941V24.9772C16.6333 25.1847 16.6748 25.3297 16.7578 25.382L17.1732 25.4443H18.5436L21.7205 25.33C22.5717 25.2368 23.2984 25.1017 23.8695 24.9146C24.4375 24.7075 24.9698 24.4134 25.4475 24.0429C25.8628 23.7003 26.2885 23.2122 26.7559 22.5893C27.5343 21.572 28.095 20.2741 28.4375 18.6857C28.6451 17.648 28.7492 16.6407 28.7492 15.6751C28.7492 14.8239 28.6246 13.9102 28.365 12.9239C28.0017 11.5015 27.4513 10.2556 26.6726 9.19659C25.1671 7.14103 22.6962 6.12349 19.2805 6.12349H17.1729C16.9344 6.10217 16.7786 6.1542 16.7061 6.27872ZM34.3765 26.005C34.3557 25.8801 34.4595 25.8284 34.6881 25.8284L35.4148 25.8074C35.8094 25.7556 36.0482 25.6209 36.1415 25.413L36.2765 24.6656V18.6334C36.2765 18.4051 36.1932 18.2285 36.0377 18.1248L35.4978 18.0724L34.7711 18.27L34.3765 18.249C34.3245 18.1245 34.4803 18.0102 34.8436 17.9064C35.7053 17.6781 36.4636 17.3873 37.107 17.0239C37.5013 16.7956 37.7817 16.6708 37.9062 16.6191L38.2178 16.5881C38.3216 16.6085 38.3739 16.8164 38.3739 17.1899V24.7895C38.3739 25.1526 38.4566 25.4125 38.6127 25.568C38.7992 25.755 39.2356 25.8483 39.9103 25.8483C40.1491 25.8483 40.2733 25.9006 40.2947 26.0143C40.2947 26.1082 40.2219 26.1391 40.0971 26.1391H34.5633C34.4387 26.14 34.3765 26.0877 34.3765 26.005ZM58.8783 18.5296C58.3696 19.0593 58.027 19.6819 57.84 20.4294V24.8421C57.84 25.2365 57.975 25.5168 58.2553 25.6934L58.8891 25.8071L59.5532 25.8799C59.7093 25.9009 59.7716 25.9322 59.7716 26.0149L59.7406 26.0877L59.564 26.14H54.0095C53.8434 26.14 53.7502 26.0877 53.7502 26.005L53.9057 25.8801L54.8402 25.8074C55.2033 25.7451 55.4321 25.6209 55.5567 25.4338L55.7128 24.9667V18.7374L55.6084 18.2806L55.4324 18.1768C55.3801 18.125 55.2974 18.094 55.1726 18.073C55.017 18.0631 54.83 18.094 54.6329 18.1768L54.1038 18.3223L53.8022 18.2496C53.7505 18.1768 53.7712 18.125 53.8437 18.094L54.2901 17.907C55.3073 17.6059 56.1276 17.2946 56.699 16.973L57.4047 16.5886L57.7163 16.6091L57.8408 16.869V19.1528C58.6198 17.8862 59.2425 17.1078 59.6684 16.8479C59.9276 16.6924 60.177 16.5676 60.3641 16.5158L60.7271 16.4849C60.9554 16.4638 61.2153 16.5366 61.5056 16.7237C61.9005 16.952 62.108 17.2946 62.1285 17.7304C62.1495 18.094 62.0452 18.3747 61.8169 18.5922C61.6093 18.7687 61.4015 18.821 61.215 18.7687C61.0384 18.7377 60.9034 18.6649 60.8101 18.5612L60.5193 18.1981C60.291 17.8655 60.0729 17.7617 59.8136 17.8555C59.5114 17.9377 59.2004 18.1665 58.8783 18.5296ZM37.1798 9.9955C36.7954 9.9955 36.4841 10.1305 36.2248 10.3901C35.9444 10.6497 35.8094 10.9818 35.8299 11.3662C35.8094 11.7295 35.9442 12.0411 36.2248 12.3007C36.4841 12.5603 36.7957 12.695 37.1798 12.695C37.5428 12.695 37.865 12.56 38.1242 12.3007C38.3835 12.0411 38.5291 11.7298 38.5291 11.3662C38.5291 10.9818 38.3835 10.6497 38.1242 10.3901C37.865 10.1305 37.5428 9.9955 37.1798 9.9955ZM42.6823 18.2803C43.0559 17.7822 43.5236 17.3668 44.0839 17.0347C44.5826 16.7439 45.0807 16.5571 45.5999 16.4633L47.5207 16.3495C48.2158 16.3805 48.86 16.5156 49.4415 16.7749C50.8431 17.3978 51.7253 18.5401 52.0574 20.2011C52.4 21.883 52.1097 23.3057 51.1957 24.458C50.4172 25.4338 49.3891 26.0567 48.0916 26.3265C46.7317 26.6276 45.4651 26.5341 44.3228 26.0672C42.8378 25.4648 41.9351 24.271 41.644 22.5267C41.3844 20.8763 41.727 19.4744 42.6823 18.2803ZM48.7659 17.8134C48.1328 17.1078 47.3333 16.7962 46.3675 16.8789C45.4336 16.9727 44.7171 17.4913 44.2497 18.4776C43.8244 19.3706 43.6683 20.4612 43.8244 21.7483C43.9381 23.0254 44.3435 24.0427 44.9971 24.8214C45.6928 25.6416 46.4821 25.9842 47.3643 25.8287C48.2883 25.6521 48.9635 25.1535 49.4099 24.3233C49.8457 23.472 50.0013 22.3715 49.8975 20.9698C49.7732 19.5682 49.4102 18.5296 48.7659 17.8134ZM34.3037 18.2703V18.3741L34.0751 18.2285V18.2803L34.0959 18.3741H34.0646V18.1765H34.0751L34.2827 18.3326V18.1765H34.3242L34.3037 18.2703Z" fill="white"/>
</svg>
