<svg width="65" height="40" viewBox="0 0 65 40" fill="none" xmlns="http://www.w3.org/2000/svg">
<path fill-rule="evenodd" clip-rule="evenodd" d="M25.619 3.5C16.5248 3.5 9.11719 10.9076 9.11719 20.0018C9.11719 29.096 16.525 36.5 25.619 36.5C28.2034 36.5 30.6515 35.9021 32.832 34.8375C35.0125 35.9021 37.4606 36.5 40.045 36.5C49.139 36.5 56.5468 29.096 56.5468 20.0018C56.5468 10.9076 49.1392 3.5 40.045 3.5C37.4604 3.5 35.0124 4.09839 32.832 5.1637C30.6516 4.09839 28.2036 3.5 25.619 3.5ZM32.832 9.72526C34.9976 11.2495 36.6497 13.4447 37.4855 16.0123L37.5863 16.3219H41.7147L41.5643 15.7579C40.7464 12.69 39.0637 9.96954 36.7946 7.87573C37.8305 7.60011 38.9201 7.45325 40.045 7.45325C46.9921 7.45325 52.5936 13.0548 52.5936 20.0018C52.5936 26.9486 46.9922 32.5467 40.045 32.5467C38.921 32.5467 37.8323 32.4002 36.797 32.125C39.7317 29.4175 41.6854 25.6617 42.0553 21.4596L42.0983 20.9719H33.788V24.9499H37.1559C36.2339 27.1054 34.7267 28.9472 32.832 30.2773C30.9373 28.9472 29.4301 27.1054 28.5081 24.9499H31.876V20.9719H23.5657L23.6087 21.4596C23.9786 25.6617 25.9323 29.4175 28.8671 32.125C27.8317 32.4002 26.743 32.5467 25.619 32.5467C18.6718 32.5467 13.0704 26.9486 13.0704 20.0018C13.0704 13.0548 18.6719 7.45325 25.619 7.45325C26.7439 7.45325 27.8335 7.60011 28.8694 7.87573C26.6003 9.96954 24.9176 12.69 24.0997 15.7579L23.9493 16.3219H28.0777L28.1785 16.0123C29.0143 13.4447 30.6664 11.2495 32.832 9.72526Z" fill="white"/>
</svg>
