<svg width="81" height="40" viewBox="0 0 81 40" fill="none" xmlns="http://www.w3.org/2000/svg">
<path d="M15.6228 20.1306L15.8437 20.1506C16.7074 20.2109 17.0087 20.3515 17.1091 20.4318C17.1895 20.4921 17.3502 20.7331 17.3502 21.6772V24.7905C17.3502 24.9311 17.31 25.0516 17.2497 25.1119C17.2096 25.1521 17.0489 25.2525 16.4664 25.4534C16.1852 25.5538 15.904 25.6141 15.6027 25.6542C15.3014 25.6944 15.0202 25.7145 14.7992 25.7145C13.4736 25.7145 12.3487 25.2324 11.4449 24.2683C10.541 23.3042 10.079 21.9383 10.079 20.2109C10.079 18.1019 10.541 16.5753 11.4449 15.6714C12.3487 14.7676 13.4133 14.3056 14.5984 14.3056C15.7835 14.3056 16.7074 14.6872 17.4305 15.4505C17.8322 15.8924 18.234 16.5954 18.6357 17.4993L18.6959 17.6399H19.5396L19.3789 13.0603H18.5553L18.4951 13.2009C18.4348 13.3615 18.3344 13.5022 18.254 13.5825C18.2139 13.6227 18.0934 13.6829 17.8122 13.6829C17.772 13.6829 17.5912 13.6628 16.607 13.3816C15.8839 13.1607 15.1005 13.0603 14.3172 13.0603C12.168 13.0603 10.4004 13.8034 9.09479 15.2898C7.90971 16.6356 7.30713 18.2626 7.30713 20.1306C7.30713 22.2597 8.0704 23.9871 9.55677 25.2726C10.9025 26.4175 12.5898 27 14.5582 27C15.6228 27 16.7275 26.7991 17.8724 26.4175C19.399 25.8953 19.7203 25.5739 19.7203 25.2726V21.4161C19.7203 20.8737 19.8208 20.4921 20.0417 20.3314C20.102 20.2712 20.3028 20.1908 20.8853 20.1506L21.1063 20.1306V19.307H15.6228V20.1306ZM31.7519 14.1047L31.9728 14.1248C32.6156 14.1851 33.0575 14.3458 33.2784 14.5667C33.399 14.6872 33.5998 15.109 33.5998 16.4146V21.5165C33.5998 22.7217 33.4592 23.6255 33.1579 24.1879C32.6558 25.1923 31.6715 25.6743 30.145 25.6743C28.7792 25.6743 27.8753 25.2123 27.3731 24.2482C27.112 23.7059 26.9714 22.9426 26.9714 21.9584V15.6313C26.9714 14.7877 27.1321 14.5065 27.2325 14.4261C27.333 14.3257 27.6342 14.165 28.5582 14.1047L28.7792 14.0846V13.2812H22.7533V14.1047L22.9743 14.1248C23.8781 14.1851 24.1794 14.3659 24.2799 14.4462C24.3803 14.5265 24.541 14.8077 24.541 15.6514V21.7776C24.541 23.023 24.7619 24.0473 25.1837 24.8106C25.9872 26.2568 27.5137 27 29.7031 27C31.9327 27 33.4592 26.2568 34.2627 24.7905C34.6845 24.0072 34.9054 22.9024 34.9054 21.5165V16.3945C34.9054 15.1291 35.0862 14.7073 35.2067 14.5868C35.3473 14.4261 35.6687 14.2253 36.5324 14.1248L36.7332 14.1047V13.3013H31.7318V14.1047H31.7519ZM59.772 19.1062L58.0446 18.0416C57.4219 17.66 56.9599 17.2984 56.6787 16.957C56.4176 16.6356 56.277 16.274 56.277 15.8121C56.277 15.33 56.4377 14.9483 56.7792 14.6872C57.1407 14.406 57.5424 14.2654 58.0245 14.2654C58.6672 14.2654 59.31 14.5065 59.9728 14.9684C60.6357 15.4304 61.1177 16.274 61.419 17.4591L61.4592 17.6399H62.3631L61.881 13H61.0776L61.0374 13.1808C60.9972 13.3615 60.937 13.4821 60.8767 13.5825C60.8365 13.6428 60.716 13.6628 60.5754 13.6628C60.5353 13.6628 60.3746 13.6227 59.5711 13.3415C58.9284 13.1205 58.3459 13 57.8839 13C56.739 13 55.815 13.3615 55.112 14.0445C54.409 14.7475 54.0675 15.6313 54.0675 16.6758C54.0675 17.4792 54.3688 18.2224 54.9714 18.8852C55.2928 19.2267 55.7146 19.5681 56.2167 19.8895L57.8839 20.934C58.8279 21.5165 59.4506 21.9584 59.7318 22.2396C60.1536 22.6614 60.3545 23.1636 60.3545 23.7461C60.3545 24.3888 60.1536 24.8709 59.7519 25.2123C59.3301 25.5739 58.8681 25.7547 58.2856 25.7547C57.201 25.7547 56.3172 25.3329 55.574 24.4692C55.1522 23.967 54.7706 23.2841 54.4492 22.4405L54.3889 22.2798H53.5051L54.1479 26.9197H54.9915L55.0317 26.7188C55.0518 26.5782 55.0919 26.4577 55.1522 26.3572C55.1924 26.297 55.2727 26.2568 55.4133 26.2568C55.4535 26.2568 55.6142 26.297 56.4779 26.5782C57.1608 26.8192 57.8236 26.9397 58.4463 26.9397C59.7117 26.9397 60.7562 26.5782 61.5797 25.8551C62.4033 25.132 62.8251 24.208 62.8251 23.1033C62.8251 22.2798 62.584 21.5768 62.1221 20.9742C61.6601 20.4118 60.8566 19.7891 59.772 19.1062ZM72.0446 19.1062L70.3172 18.0416C69.6945 17.66 69.2325 17.2984 68.9513 16.957C68.6902 16.6356 68.5496 16.274 68.5496 15.8121C68.5496 15.33 68.7103 14.9483 69.0518 14.6872C69.4133 14.406 69.815 14.2654 70.2971 14.2654C70.9398 14.2654 71.5826 14.5065 72.2454 14.9684C72.9083 15.4304 73.3903 16.274 73.6916 17.4591L73.7318 17.6399H74.6357L74.1536 13H73.3502L73.31 13.1808C73.2698 13.3615 73.2096 13.4821 73.1493 13.5825C73.1091 13.6428 72.9886 13.6628 72.848 13.6628C72.8079 13.6628 72.6472 13.6227 71.8437 13.3415C71.201 13.1205 70.6185 13 70.1565 13C69.0116 13 68.0876 13.3615 67.3846 14.0445C66.6816 14.7475 66.3401 15.6313 66.3401 16.6758C66.3401 17.4792 66.6414 18.2224 67.244 18.8852C67.5654 19.2267 67.9872 19.5681 68.4893 19.8895L70.1565 20.934C71.1005 21.5165 71.7232 21.9584 72.0044 22.2396C72.4262 22.6614 72.6271 23.1636 72.6271 23.7461C72.6271 24.3888 72.4262 24.8709 72.0245 25.2123C71.6027 25.5739 71.1407 25.7547 70.5582 25.7547C69.4736 25.7547 68.5898 25.3329 67.8466 24.4692C67.4248 23.967 67.0431 23.2841 66.7218 22.4405L66.6615 22.2798H65.7777L66.4205 26.9197H67.2641L67.3043 26.7188C67.3244 26.5782 67.3645 26.4577 67.4248 26.3572C67.465 26.297 67.5453 26.2568 67.6859 26.2568C67.7261 26.2568 67.8868 26.297 68.7505 26.5782C69.4334 26.8192 70.0962 26.9397 70.7189 26.9397C71.9843 26.9397 73.0288 26.5782 73.8523 25.8551C74.6759 25.132 75.0977 24.208 75.0977 23.1033C75.0977 22.2798 74.8566 21.5768 74.3947 20.9742C73.9327 20.4118 73.1292 19.7891 72.0446 19.1062ZM49.9298 23.0631C49.4477 24.1277 48.9255 24.7905 48.343 25.0516C47.7404 25.3329 46.7964 25.4735 45.5109 25.4735C44.0245 25.4735 43.5223 25.4132 43.3617 25.373C43.3215 25.3529 43.1608 25.3128 43.1608 24.911V20.2912H45.9528C46.937 20.2912 47.2584 20.472 47.3588 20.5925C47.4994 20.7331 47.7002 21.0947 47.8609 21.9785L47.9011 22.1793H48.7849V17.1779H47.9011L47.8609 17.3788C47.7002 18.2626 47.4994 18.6241 47.3588 18.7647C47.2584 18.8852 46.937 19.066 45.9327 19.066H43.1407V14.9283C43.1407 14.627 43.1809 14.5466 43.1809 14.5466C43.1809 14.5466 43.2411 14.5065 43.5223 14.5065H46.1938C47.5596 14.5065 48.0618 14.6872 48.2627 14.8479C48.4635 14.9885 48.7246 15.3902 48.9255 16.3745L48.9657 16.5753H49.8896L49.8093 13.3013H38.9427V14.1248L39.1637 14.1449C40.0274 14.2052 40.3287 14.3859 40.409 14.4663C40.5094 14.5667 40.65 14.8479 40.65 15.6714V24.3888C40.65 25.2927 40.4893 25.5136 40.409 25.5739C40.3086 25.6542 40.0073 25.8149 39.1436 25.8953L38.9226 25.9154V26.7188H49.9298L50.9542 22.9426H49.9499L49.9298 23.0631Z" fill="white"/>
</svg>
