<svg width="81" height="40" viewBox="0 0 81 40" fill="none" xmlns="http://www.w3.org/2000/svg">
<path fill-rule="evenodd" clip-rule="evenodd" d="M37.3738 9.39153H33.9941V19.6711C33.9941 21.6425 33.4309 23.5205 30.8494 23.5205C28.2206 23.5205 27.5167 21.6425 27.5167 19.6711V9.39153H24.1839V19.8591C24.1839 23.1915 26.2023 25.9137 30.8494 25.9137C35.4492 25.9137 37.3738 23.1911 37.3738 19.8591V9.39153ZM8.22461 25.4916H11.5573V18.0284H18.1759V25.4916H21.4613V9.39153H18.1759V15.5876H11.5573V9.39153H8.22461V25.4916ZM54.1777 13.5224C52.9575 10.3776 50.5636 8.68798 47.2778 8.68798C42.3961 8.68798 39.1572 12.2552 39.1572 17.3245C39.1572 22.8166 42.0201 25.9141 47.0429 25.9141C48.2166 25.9141 50.4698 25.3509 51.5489 24.1306V25.5392H54.3188V16.7144H47.3716V19.1083H51.2679C51.2679 21.5018 49.531 23.7085 47.2778 23.7085C43.8981 23.7085 42.6779 20.3754 42.6779 17.3248C42.6779 14.4619 44.0392 10.9412 47.2778 10.9412C49.9531 10.9412 50.9857 13.382 51.3144 14.6964L54.1777 13.5224ZM9.44484 31.4062V29.81H10.9472V31.4062H11.7449V27.792H10.9472V29.2468H9.44484V27.792H8.69401V31.4062H9.44484ZM18.598 27.792V29.7631C18.598 30.3736 18.598 30.8895 17.7999 30.8895C17.0487 30.8895 17.0487 30.3736 17.0487 29.7631V27.792H16.251V30.0449C16.251 30.9837 16.9549 31.4535 17.7999 31.4535C18.6918 31.4535 19.3957 30.9841 19.3957 30.0449V27.792H18.598ZM26.343 30.0922V30.7957C26.1554 30.843 25.9677 30.8895 25.6391 30.8895C24.8879 30.8895 24.6064 30.4209 24.6064 29.6228C24.6064 28.7774 24.8882 28.308 25.5921 28.308C26.0146 28.308 26.2964 28.5901 26.2964 28.9185H27.0942C27.0942 28.2142 26.484 27.7448 25.5452 27.7448C24.7944 27.7448 23.7614 28.1669 23.7614 29.6228C23.7614 31.0306 24.7472 31.4535 25.5921 31.4535C26.343 31.4535 26.8127 31.3124 27.0942 31.1713V29.4817H25.6391V30.0922H26.343ZM62.4863 28.8247C62.4863 28.0731 61.782 27.6982 61.125 27.6982C60.4672 27.6982 59.7164 28.0731 59.7164 28.8247C59.7164 29.3406 60.092 29.6228 60.6083 29.7631C60.7494 29.8104 61.0311 29.8576 61.1715 29.9042C61.6409 30.0453 61.8285 30.1863 61.8285 30.4674C61.8285 30.8895 61.4536 30.9841 61.2188 30.9841C60.6555 30.9841 60.4207 30.6557 60.4207 30.2798H59.6698C59.6698 31.0306 60.233 31.5 61.2188 31.5C61.9696 31.5 62.6739 31.0779 62.6739 30.3736C62.6739 29.8104 62.2517 29.4817 61.6885 29.341C61.5002 29.2944 61.3129 29.2472 61.1253 29.1534C60.7024 29.0595 60.5148 28.9185 60.5148 28.6367C60.5148 28.4025 60.7024 28.1673 61.1253 28.1673C61.5474 28.1673 61.7351 28.4494 61.7351 28.825H62.4863V28.8247ZM70.1843 28.8247C70.1843 28.0731 69.4328 27.6982 68.7757 27.6982C68.1187 27.6982 67.3679 28.0731 67.3679 28.8247C67.3679 29.3406 67.7428 29.6228 68.2598 29.7631C68.4001 29.8104 68.6819 29.8576 68.823 29.9042C69.339 30.0453 69.48 30.1863 69.48 30.4674C69.48 30.8895 69.1044 30.9841 68.8695 30.9841C68.3063 30.9841 68.0715 30.6557 68.0715 30.2798H67.3206C67.3206 31.0306 67.8838 31.5 68.8695 31.5C69.6211 31.5 70.3247 31.0779 70.3247 30.3736C70.3247 29.8104 69.9025 29.4817 69.3393 29.341C69.1517 29.2944 68.9637 29.2472 68.7761 29.1534C68.354 29.0595 68.1656 28.9185 68.1656 28.6367C68.1656 28.4025 68.354 28.1673 68.7761 28.1673C69.1982 28.1673 69.3866 28.4494 69.3866 28.825H70.1843V28.8247ZM33.2902 31.5C34.5104 31.5 35.0736 30.6554 35.0736 29.6228C35.0736 28.5429 34.5104 27.6982 33.2902 27.6982C32.0696 27.6982 31.5064 28.5429 31.5064 29.6228C31.5064 30.6554 32.0696 31.5 33.2902 31.5ZM33.2902 28.2615C34.0879 28.2615 34.229 28.9657 34.229 29.6228C34.229 30.2325 34.0883 30.9368 33.2902 30.9368C32.4921 30.9368 32.3514 30.2325 32.3514 29.6228C32.351 28.9657 32.4921 28.2615 33.2902 28.2615ZM45.5881 31.4062C46.3389 31.4062 46.996 31.0779 46.996 30.4209C46.996 29.8576 46.5738 29.5282 46.1513 29.5282C46.4335 29.4817 46.8083 29.1534 46.8083 28.7309C46.8083 28.0731 46.3389 27.792 45.5881 27.792H43.9923V31.4062H45.5881ZM44.79 30.843V29.8104H45.4943C45.8226 29.8104 46.1041 29.9042 46.1041 30.327C46.1041 30.7492 45.8226 30.843 45.4943 30.843H44.79ZM44.79 29.2941V28.3553H45.4943C45.8226 28.3553 46.0103 28.5429 46.0103 28.8247C46.0103 29.1061 45.7288 29.2941 45.447 29.2941H44.79ZM53.2862 31.5C54.5537 31.5 55.1169 30.7019 55.1169 29.5755C55.1169 28.4963 54.5537 27.6982 53.2862 27.6982C52.066 27.6982 51.5027 28.4963 51.5027 29.5755C51.5024 30.7019 52.0656 31.5 53.2862 31.5ZM53.2862 28.2615C54.0843 28.2615 54.2715 28.9657 54.2715 29.5755C54.2715 30.2325 54.0839 30.9368 53.2862 30.9368C52.4885 30.9368 52.3474 30.2325 52.3474 29.5755C52.347 28.9657 52.4881 28.2615 53.2862 28.2615ZM64.317 8.5C59.3408 8.5 56.055 12.2552 56.055 17.3245C56.055 22.4406 59.3408 26.149 64.317 26.149C69.339 26.149 72.6248 22.441 72.6248 17.3245C72.6248 12.2552 69.339 8.5 64.317 8.5ZM64.317 10.7059C67.6493 10.7059 69.0579 14.4143 69.0579 17.3245C69.0579 20.2351 67.6493 23.8958 64.317 23.8958C61.0311 23.8958 59.6226 20.2351 59.6226 17.3245C59.6229 14.4143 61.0311 10.7059 64.317 10.7059Z" fill="white"/>
</svg>
