<svg width="109" height="40" viewBox="0 0 109 40" fill="none" xmlns="http://www.w3.org/2000/svg">
<path d="M62.7888 23.7514C61.9345 23.9572 61.0169 24.1946 60.0833 24.3213V24.7012C60.6845 24.7012 61.1749 24.6378 61.3332 25.3026C61.4281 25.7301 61.4281 27.028 61.4281 27.5503V34.8473C61.4281 36.0818 61.539 36.5409 60.1466 36.6359V37L62.3775 36.9208L64.4501 37V36.6359C62.8839 36.5566 63.0106 36.0817 63.0106 34.7365V31.1275C63.8173 31.8556 64.5926 32.1879 65.6842 32.1879C68.0259 32.1879 69.7029 30.2885 69.7029 28.0251C69.7029 25.6033 68.0259 23.7669 65.5733 23.7669C64.371 23.7513 63.5166 24.3053 62.7886 25.2866L62.7888 23.7514ZM30.4494 24.5586V24.2263C31.3828 23.6881 32.3163 22.9443 32.7119 21.8836H32.9966V24.068H35.1168V24.5744H32.9966V29.8771C32.9966 30.7159 33.1707 31.6024 34.1517 31.6024C34.8004 31.6024 35.1326 31.2225 35.4965 30.7635L35.8287 31.0008C35.4965 31.8873 34.5631 32.188 33.6771 32.188C32.3322 32.188 31.4146 31.6815 31.4146 30.2727V24.5586H30.4494ZM53.0745 32.0614H52.8844L52.8054 29.4023H53.1853C53.4858 30.6052 54.1186 31.7764 55.4952 31.7764C56.3179 31.7764 57.0457 31.3649 57.0457 30.4628C57.0457 29.4023 55.9697 28.9749 55.1786 28.5632C54.1028 28.0092 52.9477 27.392 52.9477 25.9833C52.9477 24.7011 53.9763 23.7514 55.2578 23.7514C55.8275 23.7514 56.5395 23.9097 57.0615 24.2104L57.4253 23.7672H57.6469L57.6153 26.094H57.2513C56.9191 25.1602 56.5077 24.1787 55.3369 24.1787C54.7198 24.1787 54.1502 24.527 54.1502 25.2076C54.1502 26.1731 55.1626 26.5214 55.8746 26.9013C57.1564 27.5659 58.3113 28.0568 58.3113 29.7345C58.3113 31.2699 57.0138 32.1879 55.5898 32.1879C54.8938 32.1879 54.1027 31.9663 53.5489 31.5232L53.0745 32.0614ZM74.9556 27.7561C73.7692 28.2944 71.997 28.975 71.997 30.5261C71.997 31.5708 72.9462 32.1723 73.9272 32.1723C75.0666 32.1723 76.1423 31.555 77.0127 30.8427C77.2025 31.5866 77.8511 32.1723 78.6105 32.1723C79.2909 32.1723 79.9871 31.5392 80.2876 30.9218L79.9396 30.7319C79.734 30.985 79.544 31.3333 79.1801 31.3333C78.4522 31.3333 78.5315 29.9563 78.5315 29.4814V26.4107C78.5315 24.274 77.5821 23.7357 75.5253 23.7357C74.5761 23.7357 72.1078 23.9889 72.1078 25.3659C72.1078 25.7775 72.4084 26.0309 72.8198 26.0309C73.2786 26.0309 73.5317 25.6191 73.5633 25.2077C73.6267 24.2264 74.3703 24.1473 75.3038 24.1473C76.8228 24.1473 76.9333 25.0337 76.9333 26.2999C76.9333 26.5057 76.9651 26.7432 76.791 26.838L74.9556 27.7561ZM23.5986 27.7561C22.412 28.2944 20.6557 28.975 20.6557 30.5261C20.6557 31.5708 21.605 32.1723 22.586 32.1723C23.7252 32.1723 24.801 31.555 25.6713 30.8427C25.8611 31.5866 26.5098 32.1723 27.2693 32.1723C27.9654 32.1723 28.6458 31.5392 28.9465 30.9218L28.5984 30.7319C28.3927 30.985 28.2028 31.3333 27.839 31.3333C27.1112 31.3333 27.1903 29.9563 27.1903 29.4814V26.4107C27.1903 24.274 26.241 23.7357 24.1841 23.7357C23.2348 23.7357 20.7666 23.9889 20.7666 25.3659C20.7666 25.7775 21.0672 26.0309 21.4786 26.0309C21.9375 26.0309 22.1906 25.6191 22.2222 25.2077C22.2855 24.2264 23.0292 24.1473 23.9625 24.1473C25.4815 24.1473 25.5922 25.0337 25.5922 26.2999C25.5922 26.5057 25.6238 26.7432 25.4499 26.838L23.5986 27.7561ZM100.16 30.2253C99.6059 30.9693 98.7674 31.6024 97.8181 31.6024C95.8404 31.6024 94.9068 29.6238 94.9068 27.851L94.986 26.9488H100.318C100.508 26.9488 100.777 27.028 100.777 26.7748C100.777 24.7488 99.0523 23.7357 97.2328 23.7357C94.8119 23.7357 93.0398 25.8409 93.0398 28.1835C93.0398 30.5737 94.9386 32.1723 97.2485 32.1723C98.6409 32.1723 99.685 31.6816 100.555 30.6052L100.16 30.2253ZM44.5624 30.2253C44.0086 30.9693 43.17 31.6024 42.2207 31.6024C40.243 31.6024 39.3095 29.6238 39.3095 27.851L39.3887 26.9488H44.7206C44.9105 26.9488 45.1795 27.028 45.1795 26.7748C45.1795 24.7488 43.4549 23.7357 41.6354 23.7357C39.2147 23.7357 37.4427 25.8409 37.4427 28.1835C37.4427 30.5737 39.3413 32.1723 41.6513 32.1723C43.0436 32.1723 44.0878 31.6816 44.958 30.6052L44.5624 30.2253ZM91.5052 31.5708V31.191C90.9039 31.191 90.4135 31.2226 90.1603 30.5735C89.9705 30.0828 89.9705 29.149 89.9705 28.6266V19.2244L86.9961 19.8101V20.1741C88.3251 20.2058 88.3883 20.8073 88.3883 21.9311V24.8753C87.7239 24.0996 86.7586 23.7198 85.7303 23.7198C83.3727 23.7198 81.7591 25.7618 81.7591 28.0409C81.7591 30.3519 83.3887 32.1563 85.7303 32.1563C86.9961 32.1563 87.8346 31.7131 88.6414 30.7477C88.7047 31.2542 88.8156 31.729 89.0053 32.1563L91.5052 31.5708ZM12.6341 27.9619L13.884 26.6323C14.1846 26.3158 15.2921 25.1443 15.2921 24.7328C15.2921 24.2896 14.596 24.2579 14.3112 24.2579V23.8938L15.9408 23.973L17.523 23.8938V24.2579C16.5262 24.2896 16.3363 24.6061 15.6877 25.3184L13.9789 27.2337L17.5546 30.7318C18.0452 31.1751 18.1717 31.4599 18.8362 31.5708V31.9347C18.4722 31.919 18.0767 31.8714 17.697 31.8557L16.5419 31.9347L13.0137 28.1676L12.634 28.5475V29.703C12.634 30.9378 12.46 31.4917 13.9314 31.5867V31.9507L11.843 31.8715C11.1469 31.8875 10.4665 31.9348 9.73863 31.9507V31.5867C11.131 31.4918 11.0361 31.0485 11.0361 29.8141V22.4378C11.0361 22.0104 11.0361 21.0133 10.8304 20.6651C10.5931 20.2376 10.0709 20.2376 9.62793 20.1743V19.8103L12.634 19.2246L12.6341 27.9619ZM88.3883 28.8799C88.3883 30.3519 87.8504 31.6816 86.1733 31.6816C84.164 31.6816 83.6259 29.7346 83.6259 28.0568C83.6259 26.4425 84.1641 24.3213 86.1733 24.3213C87.2492 24.3213 88.3883 25.0493 88.3883 26.2208V28.8799ZM63.0106 27.487C63.0106 26.7271 63.0106 26.0623 63.4058 25.3976C63.8015 24.7171 64.4976 24.3372 65.2887 24.3372C67.3142 24.3372 67.8517 26.2682 67.8517 27.9619C67.8517 29.6396 67.2506 31.6024 65.2413 31.6024C64.5767 31.6024 63.8489 31.365 63.4217 30.8585C63.0106 30.3678 63.0106 29.4497 63.0106 28.8166V27.487ZM25.5921 30.3678C25.07 30.8743 24.2789 31.4283 23.551 31.4283C22.7916 31.4283 22.3644 30.7793 22.3644 30.0828C22.3644 28.5949 24.4687 27.8668 25.5763 27.3286V30.3677L25.5921 30.3678ZM76.9492 30.3678C76.4272 30.8743 75.6361 31.4283 74.9083 31.4283C74.1487 31.4283 73.7216 30.7793 73.7216 30.0828C73.7216 28.5949 75.8259 27.8668 76.9333 27.3286V30.3677L76.9492 30.3678ZM39.531 26.4582C39.7525 25.2393 40.3063 24.163 41.6986 24.163C42.8694 24.163 43.5023 24.907 43.5023 26.0781C43.5023 26.5532 42.8852 26.4582 42.6005 26.4582H39.531ZM95.1601 26.4582C95.3815 25.2393 95.9353 24.163 97.3276 24.163C98.4985 24.163 99.1313 24.907 99.1313 26.0781C99.1313 26.5532 98.5143 26.4582 98.2294 26.4582H95.1601ZM61.2383 9.4582C61.2383 9.4582 61.428 7.6537 57.7574 5.16845C57.7574 5.16845 55.9696 3.99734 55.1469 3.0634C55.1154 3.0317 55.0994 3 55.0521 3C55.0045 3 54.9889 3.0317 54.9572 3.0634C54.1343 3.99734 52.3465 5.16845 52.3465 5.16845C48.6759 7.6537 48.8657 9.4582 48.8657 9.4582C48.7075 11.0094 49.8782 12.5131 51.4445 12.5131C52.6946 12.5131 53.5963 11.8009 53.9285 11.4843L54.071 11.3418C54.1343 11.2626 54.2134 11.1835 54.2292 11.1518C54.2292 11.1518 54.2767 11.1993 54.2767 11.2151C54.3083 11.2785 54.3399 11.3418 54.3399 11.4052C54.4981 12.703 52.8843 14.3335 52.4097 14.7767C52.4097 14.7767 52.2831 14.9191 52.2831 15.1091V15.3939H57.8049V15.1091C57.8049 14.919 57.6783 14.7767 57.6783 14.7767C57.2037 14.3335 55.5897 12.703 55.7479 11.4052C55.7641 11.3418 55.7797 11.2626 55.8112 11.2151L55.8587 11.1518C55.8745 11.1993 55.9538 11.2785 56.017 11.3418L56.1593 11.4843C56.4916 11.8009 57.3933 12.5131 58.6433 12.5131C60.2259 12.4974 61.3806 11.0094 61.2383 9.4582Z" fill="white"/>
</svg>
