<svg width="145" height="40" viewBox="0 0 145 40" fill="none" xmlns="http://www.w3.org/2000/svg">
<path d="M137.937 24.0614C137.668 23.8928 137.43 23.8722 137.184 23.7959C136.847 23.6963 136.739 23.2867 136.616 23.2372C136.369 23.1426 136.136 23.5238 135.985 23.4732C135.834 23.4247 135.774 22.9205 135.648 22.8766C135.407 22.7864 135.148 23.1704 134.993 23.1203C134.844 23.0719 134.761 22.5777 134.637 22.5304C134.388 22.4397 134.129 22.8382 133.976 22.7881C133.825 22.7386 133.784 22.2249 133.659 22.1792C133.394 22.0774 133.146 22.4853 132.907 22.4458C132.757 22.4247 132.428 22.3668 131.993 22.0774C131.87 21.9945 131.613 21.7875 131.592 21.7802C131.55 21.7641 131.437 21.7357 131.467 21.9583C131.527 22.4837 132.43 22.8599 133.468 23.161C134.501 23.4587 135.552 23.7459 136.177 24.0347C136.564 24.2139 136.731 24.4293 136.593 24.6352C136.483 24.7988 136.218 24.8066 135.929 24.6708C135.62 24.5216 135.588 24.2768 135.391 24.2328C135.156 24.1766 134.852 24.6313 134.664 24.5868C134.416 24.53 134.392 24.0074 134.175 23.9506C133.892 23.8738 133.575 24.3152 133.388 24.274C133.197 24.2384 133.126 23.6802 132.949 23.634C132.651 23.5561 132.341 24.018 132.155 23.979C131.966 23.9395 131.862 23.3891 131.704 23.3251C131.406 23.2049 131.005 23.6546 130.592 23.4353C129.256 22.5332 129.509 22.0674 128.487 21.7658C127.96 21.6083 127.302 21.7986 126.916 21.8375C126.01 21.9327 126.046 21.1514 126.046 21.1514C126.309 21.2115 126.677 21.3784 127.354 21.128C128.085 20.8542 128.493 20.8046 129.449 21.128C130.254 21.3973 130.731 21.1541 131.015 21.0824C131.151 21.0467 131.259 20.9705 131.519 21.1386C131.782 21.3038 132.03 21.4869 132.157 21.4241C132.355 21.3261 132.286 20.7991 132.625 20.6861C132.78 20.6371 133.205 21.059 133.391 20.9889C133.577 20.9165 133.519 20.3628 133.858 20.2515C134.013 20.2014 134.437 20.626 134.626 20.5553C134.813 20.4824 134.754 19.9304 135.091 19.8163C135.248 19.764 135.674 20.1897 135.857 20.119C136.042 20.0467 135.987 19.4946 136.326 19.3794C136.481 19.3288 136.908 19.7556 137.093 19.6838V19.6827C137.275 19.6115 137.251 19.4712 137.4 19.0928C137.428 19.0193 137.487 18.9448 137.559 18.8852C137.767 18.7138 138.079 18.3521 137.894 17.943C137.729 17.5746 137.383 17.5852 136.622 17.7438C135.982 17.8751 132.01 18.7477 132.01 18.7477C131.392 17.6013 130.973 18.3593 130.054 18.248C129.473 18.1779 128.532 17.5835 127.043 18.9576C126.24 18.7305 125.533 18.9342 125.006 19.2291C124.112 18.8652 122.405 17.9903 119.17 17.9903C118.255 17.9903 116.069 18.1718 112.593 19.0872C111.702 19.3215 110.889 19.2714 110.691 18.7422C110.488 18.1879 111.2 17.6108 112.544 16.9647C115.882 15.3674 118.111 15.7414 122.596 13.3695C124.998 12.0951 125.157 10.6014 125.154 10.2402C125.154 9.99424 124.903 9.91188 124.759 10.1133C123.95 11.2425 123.74 11.1507 123.49 10.8964C123.151 10.5602 122.928 11.095 122.565 11.365C122.292 11.5703 122.235 11.3238 122.015 11.1791C121.633 10.9375 121.313 11.6605 120.988 11.8052C120.608 11.976 120.541 11.7857 120.414 11.6521C120.321 11.5569 120.158 11.5592 120.039 11.6699C119.276 12.399 119.16 12.3127 118.933 12.0734C118.763 11.8931 118.672 11.7679 118.178 12.2687C117.89 12.5592 117.412 12.9032 117.27 12.5414C117.124 12.1808 116.999 11.9677 116.297 12.6082C115.882 12.9883 115.599 13.0167 115.473 12.8397C115.347 12.66 115.365 12.1658 114.708 12.6839C114.121 13.148 113.823 13.4263 113.627 12.9766C113.442 12.5437 113.006 12.911 112.677 13.2226C112.505 13.3879 112.219 13.7814 111.987 13.3812C111.759 12.9883 111.389 13.394 110.918 13.8938C110.651 14.1754 110.472 14.0507 110.213 13.866C109.908 13.6472 109.588 14.423 109.146 14.8866C109.064 14.9662 108.945 15.0202 108.678 14.8354C108.338 14.6 107.794 15.8032 107.64 16.0998C107.388 16.5762 107.108 15.974 106.815 16.4048C106.129 17.4076 105.395 18.5207 105.185 20.4935C104.939 22.8554 105.812 24.7782 106.699 25.4855C106.699 25.4855 106.594 25.7488 106.468 26.0816C106.222 26.7449 106.119 27.6114 106.438 28.2147C106.744 28.8002 107.466 29.7724 107.735 28.8569C107.866 28.4078 107.988 28.4323 108.418 28.7362C109.066 29.1964 108.91 28.3588 109.039 28.1123C109.13 27.9403 109.242 27.8719 109.776 28.2236C110.087 28.4245 110.184 28.1524 110.275 27.7706C110.559 26.5958 110.001 26.3064 109.453 26.1973C109.052 26.1161 108.632 26.184 108.632 26.184C109.508 24.8472 109.613 24.1193 108.632 23.4448C108.78 23.3702 108.899 23.4108 109.024 23.4637C109.268 23.5661 109.469 23.752 109.598 23.979C109.732 24.2161 109.955 24.7526 109.504 25.7004C109.695 25.7004 110.417 25.7454 110.745 26.4906C111.177 26.6281 113.951 26.8501 115.165 26.6514C115.603 26.5824 115.803 26.184 116.244 25.776C116.721 25.328 117.279 24.8428 117.778 25.2056C116.931 25.5534 116.331 26.2135 116.331 27.0494C116.331 27.6777 116.594 27.9287 117.04 28.3015C117.446 28.6404 117.573 29.1742 117.721 29.5915C117.91 30.1202 118.309 30.1369 118.399 29.6344C118.518 28.9404 118.731 29.0679 119 29.3645C119.328 29.724 119.581 29.67 119.581 29.1497C119.581 28.6622 119.732 28.4184 120.281 28.986C120.501 29.2176 120.769 29.2075 120.765 28.7067C120.76 28.0934 121.036 28.1524 121.376 28.4145C121.496 28.5091 121.578 28.5731 121.643 28.5703C121.913 28.5536 122.094 28.0305 121.884 27.6142C121.78 27.4072 121.63 27.0961 120.23 26.8073C119.771 26.716 119.848 26.396 119.848 26.396C123.267 26.5607 126.167 26.1322 128.069 24.973C130.415 25.5384 133.839 25.5907 134.963 25.579C136.085 25.564 136.947 25.5117 137.651 25.175C138.392 24.8199 138.28 24.2768 137.937 24.0614ZM39.174 16.1605C41.0476 16.1605 42.0983 17.1756 42.7011 17.7165L44.258 16.1889C43.75 15.6179 42.2569 13.9361 39.1424 13.9361C35.5536 13.9361 32.3752 16.3519 32.3752 20.4474C32.3752 24.5495 35.5214 26.962 39.1123 26.962C41.8756 26.962 43.75 25.4683 44.3545 24.9279L43.1135 23.1793C42.1309 24.008 40.5716 24.7381 39.1424 24.7381C36.6655 24.7381 34.7893 22.8638 34.7893 20.4474C34.7893 18.0332 36.6655 16.1605 39.174 16.1605ZM60.9724 25.4683C61.4821 25.8818 63.0103 26.962 65.6772 26.962C68.3796 26.962 70.5673 25.5006 70.5673 23.2127C70.5673 18.4472 63.6748 19.9693 63.6748 17.3676C63.6748 16.6363 64.2792 16.0314 65.8675 16.0314C67.7725 16.0314 69.0113 16.889 69.4893 17.2713L70.4115 15.4275C69.8399 14.8866 68.0908 13.9361 65.8675 13.9361C62.5306 13.9361 61.1655 15.8093 61.1655 17.652C61.1655 21.9745 68.0608 20.7329 68.0608 23.3095C68.0608 24.3892 66.9789 24.8639 65.7406 24.8639C63.8662 24.8639 62.3709 24.0403 61.7353 23.5622L60.9724 25.4683ZM52.4892 26.962C56.0806 26.962 59.256 24.5495 59.256 20.4474C59.256 16.3519 56.0806 13.9361 52.4892 13.9361C48.8978 13.9361 45.7205 16.3519 45.7205 20.4474C45.7205 24.5495 48.8978 26.962 52.4892 26.962ZM9.68492 14.1893H7.46118V26.7099H16.3372V24.7053H9.68492V14.1893ZM76.196 16.1889V26.7099H78.4176V16.1889H82.8069V14.1893H71.9358V16.1889H76.196ZM94.2756 14.1893H84.7736V26.7099H94.4665V24.7053H87.0013V21.4335H93.3551V19.43H87.0013V16.1889H94.2756V14.1893ZM29.3324 26.7099H31.9538L25.9355 14.1893H23.4212L17.863 26.7099H20.1818L21.3881 23.8811H28.0308L29.3324 26.7099ZM52.4892 24.7381C50.0104 24.7381 48.1347 22.8638 48.1347 20.4474C48.1347 18.0332 50.0104 16.1605 52.4892 16.1605C54.9678 16.1605 56.8435 18.0332 56.8435 20.4474C56.8435 22.8638 54.9678 24.7381 52.4892 24.7381ZM113.291 22.7052C113.238 22.9194 113.189 23.137 113.142 23.3624C113.129 23.4164 113.081 23.4431 113.026 23.4164C112.784 23.2984 112.529 23.1721 112.251 23.0413C112.195 23.0157 112.193 22.9662 112.251 22.9389C112.55 22.7948 112.868 22.689 113.199 22.6295C113.263 22.6156 113.306 22.6512 113.291 22.7052ZM114.764 22.8894C114.754 22.9428 114.7 22.9673 114.647 22.9428C114.405 22.8237 114.15 22.699 113.874 22.5688C113.816 22.5421 113.816 22.4931 113.874 22.4625C114.173 22.3189 114.491 22.2154 114.821 22.1548C114.883 22.1436 114.928 22.1793 114.915 22.2305C114.861 22.4442 114.809 22.6634 114.764 22.8894ZM116.569 21.8832C116.513 22.0969 116.465 22.3145 116.416 22.5421C116.402 22.595 116.353 22.6211 116.302 22.595C116.059 22.4775 115.803 22.3529 115.526 22.2188C115.47 22.1904 115.466 22.1453 115.525 22.1169C115.826 21.9717 116.145 21.8682 116.474 21.8075C116.538 21.7947 116.581 21.8303 116.569 21.8832ZM119.754 21.778C119.705 21.9923 119.653 22.2121 119.606 22.4358C119.595 22.4931 119.543 22.5159 119.49 22.4931C119.247 22.3746 118.992 22.2449 118.719 22.1152C118.657 22.0874 118.656 22.0396 118.715 22.0128C119.016 21.8698 119.335 21.7624 119.66 21.7034C119.728 21.689 119.771 21.7246 119.754 21.778ZM110.298 22.3763C110.288 22.4319 110.235 22.457 110.184 22.4319C109.941 22.3134 109.683 22.1848 109.411 22.0574C109.35 22.0295 109.35 21.98 109.411 21.9533C109.708 21.8092 110.027 21.7051 110.356 21.6439C110.419 21.6316 110.464 21.6661 110.451 21.7173C110.396 21.9316 110.346 22.1514 110.298 22.3763ZM118.168 21.7162C118.116 21.9316 118.066 22.1481 118.021 22.3763C118.01 22.4275 117.956 22.4553 117.907 22.4275C117.661 22.3111 117.406 22.1831 117.131 22.0563C117.071 22.0251 117.069 21.98 117.131 21.9533C117.429 21.8058 117.743 21.7023 118.075 21.6394C118.139 21.6289 118.183 21.6661 118.168 21.7162ZM112.006 21.675C111.954 21.8876 111.903 22.1086 111.857 22.3345C111.847 22.3868 111.795 22.4135 111.744 22.3868C111.498 22.2705 111.243 22.1436 110.968 22.0128C110.911 21.985 110.909 21.9366 110.966 21.9077C111.265 21.7658 111.585 21.66 111.913 21.5971C111.979 21.5866 112.025 21.6233 112.006 21.675ZM113.602 21.2821C113.548 21.4942 113.498 21.7162 113.452 21.9383C113.44 21.9923 113.39 22.0201 113.337 21.9923C113.094 21.8754 112.838 21.7485 112.563 21.6188C112.505 21.591 112.503 21.5431 112.561 21.5148C112.861 21.3712 113.181 21.2677 113.51 21.2053C113.573 21.1948 113.617 21.2276 113.602 21.2821ZM24.5983 16.382L27.142 21.9422H22.2147L24.5983 16.382ZM108.895 21.6489C108.88 21.7051 108.829 21.7301 108.779 21.7051C108.533 21.5849 108.279 21.4586 108.003 21.3283C107.942 21.2994 107.942 21.2538 108.003 21.2243C108.298 21.0807 108.618 20.9766 108.947 20.9165C109.015 20.9009 109.056 20.9371 109.045 20.9889C108.989 21.2053 108.94 21.4257 108.895 21.6489ZM115.07 21.5086C115.059 21.5637 115.008 21.5882 114.958 21.5637C114.713 21.4446 114.456 21.3166 114.182 21.1864C114.129 21.1614 114.123 21.113 114.182 21.084C114.481 20.9388 114.801 20.8347 115.128 20.7746C115.193 20.7623 115.236 20.7991 115.225 20.8503C115.168 21.0651 115.12 21.2849 115.07 21.5086ZM121.45 21.3439C121.441 21.3996 121.389 21.4207 121.339 21.3973C121.092 21.2782 120.838 21.153 120.562 21.0217C120.503 20.9966 120.503 20.9449 120.561 20.9165C120.861 20.7735 121.179 20.6689 121.508 20.6076C121.575 20.5971 121.614 20.631 121.604 20.6833C121.55 20.897 121.498 21.1185 121.45 21.3439ZM116.868 20.503C116.814 20.7173 116.766 20.9371 116.718 21.163C116.708 21.2198 116.654 21.2426 116.604 21.2159C116.358 21.1007 116.102 20.9705 115.829 20.8436C115.77 20.8141 115.766 20.7668 115.826 20.7395C116.126 20.5915 116.445 20.4885 116.774 20.429C116.837 20.4184 116.879 20.454 116.868 20.503ZM120.064 20.3906C120.009 20.606 119.961 20.8258 119.914 21.0506C119.898 21.1041 119.848 21.1297 119.798 21.1041C119.553 20.9855 119.298 20.8597 119.024 20.7301C118.963 20.7006 118.963 20.6533 119.022 20.626C119.322 20.4824 119.64 20.3772 119.967 20.3171C120.034 20.3021 120.075 20.3394 120.064 20.3906ZM118.465 20.3489C118.417 20.5614 118.364 20.7802 118.318 21.0072C118.304 21.0618 118.257 21.0857 118.205 21.0618C117.959 20.9421 117.7 20.8141 117.429 20.6861C117.37 20.6588 117.368 20.6115 117.429 20.582C117.725 20.4362 118.046 20.3344 118.373 20.2715C118.441 20.2604 118.481 20.296 118.465 20.3489ZM110.61 20.9966C110.597 21.0506 110.545 21.0751 110.494 21.0506C110.252 20.9321 109.995 20.8046 109.72 20.6755C109.66 20.6483 109.66 20.6004 109.72 20.5703C110.019 20.4257 110.336 20.3221 110.665 20.2626C110.727 20.2498 110.771 20.2843 110.76 20.3377C110.707 20.552 110.656 20.7707 110.61 20.9966ZM112.073 20.9371C111.832 20.8158 111.572 20.6906 111.3 20.5614C111.237 20.5347 111.237 20.4858 111.3 20.4568C111.598 20.3149 111.915 20.2075 112.245 20.148C112.309 20.1368 112.35 20.168 112.34 20.2242C112.281 20.4362 112.235 20.6588 112.186 20.8826C112.177 20.9371 112.128 20.9627 112.073 20.9371ZM123.376 19.7979C123.327 20.0144 123.278 20.2342 123.226 20.4568C123.218 20.5136 123.166 20.5381 123.115 20.5119C122.874 20.3939 122.61 20.2698 122.339 20.1379C122.28 20.1112 122.279 20.0606 122.339 20.0344C122.636 19.8881 122.955 19.7851 123.285 19.7239C123.349 19.7116 123.393 19.7473 123.376 19.7979ZM113.79 20.4351C113.782 20.4902 113.729 20.5153 113.68 20.4902C113.436 20.3717 113.177 20.2481 112.905 20.1151C112.847 20.0873 112.843 20.0389 112.902 20.0122C113.202 19.8658 113.52 19.7639 113.85 19.7005C113.916 19.691 113.959 19.7267 113.944 19.7773C113.892 19.9921 113.841 20.2125 113.79 20.4351ZM107.21 20.0661C107.151 20.0372 107.151 19.9921 107.207 19.9615C107.507 19.8174 107.827 19.7116 108.158 19.6521C108.219 19.6404 108.263 19.6738 108.253 19.7267C108.198 19.9404 108.147 20.1602 108.097 20.3856C108.088 20.4424 108.036 20.4674 107.985 20.4412C107.741 20.3205 107.482 20.1958 107.21 20.0661ZM115.285 20.1196C115.04 19.9999 114.785 19.8758 114.513 19.745C114.451 19.7194 114.449 19.6721 114.511 19.6421C114.809 19.4957 115.126 19.3933 115.455 19.3315C115.524 19.3215 115.563 19.3555 115.551 19.4083C115.498 19.6204 115.446 19.8419 115.402 20.0645C115.392 20.1212 115.336 20.1452 115.285 20.1196ZM108.81 19.7116C108.753 19.6838 108.753 19.6393 108.81 19.6115C109.109 19.4662 109.428 19.3588 109.756 19.2987C109.821 19.287 109.864 19.3232 109.852 19.3744C109.798 19.5875 109.747 19.8085 109.701 20.0344C109.688 20.0862 109.637 20.114 109.585 20.0862C109.342 19.9699 109.087 19.843 108.81 19.7116ZM121.909 19.287C121.86 19.5035 121.807 19.7228 121.762 19.9482C121.749 19.9999 121.699 20.0261 121.649 19.9999C121.403 19.8814 121.148 19.7556 120.873 19.627C120.814 19.5981 120.814 19.5491 120.873 19.5213C121.173 19.3772 121.488 19.2737 121.818 19.2108C121.881 19.2013 121.927 19.2336 121.909 19.287ZM116.912 19.8474C116.669 19.7278 116.413 19.5998 116.14 19.4723C116.081 19.4462 116.078 19.3972 116.14 19.3666C116.438 19.223 116.753 19.1195 117.086 19.0605C117.146 19.0477 117.192 19.0833 117.179 19.1373C117.124 19.3471 117.073 19.5675 117.027 19.7951C117.014 19.8474 116.964 19.8741 116.912 19.8474ZM120.374 19.0355C120.32 19.2486 120.268 19.4712 120.222 19.6949C120.208 19.7495 120.159 19.7756 120.106 19.7495C119.864 19.6293 119.607 19.5052 119.335 19.3755C119.273 19.3454 119.271 19.2987 119.332 19.2714C119.631 19.1256 119.948 19.021 120.281 18.9592C120.342 18.9481 120.386 18.9854 120.374 19.0355ZM118.621 19.6627C118.615 19.7155 118.564 19.7406 118.511 19.7155C118.267 19.5948 118.01 19.4712 117.735 19.3416C117.675 19.3115 117.674 19.2681 117.735 19.2375C118.033 19.0928 118.351 18.9865 118.683 18.9281C118.747 18.9169 118.787 18.9481 118.775 19.0032C118.722 19.2163 118.672 19.4373 118.621 19.6627ZM129.243 18.6932C129.678 18.6932 129.949 19.0282 129.996 19.179C129.996 19.179 129.34 19.3271 129.051 19.3861C128.867 19.4267 128.742 19.3449 128.726 19.1991C128.704 19.0355 128.878 18.6904 129.243 18.6932ZM107.042 18.6509C107.343 18.5062 107.663 18.4027 107.992 18.3398C108.055 18.3287 108.097 18.3649 108.083 18.4166C108.032 18.6331 107.982 18.8496 107.934 19.075C107.922 19.129 107.87 19.1557 107.82 19.129C107.574 19.0104 107.317 18.8852 107.044 18.7539C106.986 18.7283 106.986 18.681 107.042 18.6509ZM130.864 18.7422C130.932 18.5713 131.073 18.4539 131.218 18.4539C131.478 18.4539 131.604 18.7394 131.604 18.8279L130.973 18.9676C130.796 19.0015 130.8 18.9058 130.864 18.7422ZM109.7 18.0933C109.644 18.3086 109.597 18.5263 109.548 18.7511C109.537 18.8051 109.486 18.834 109.433 18.8051C109.188 18.6882 108.932 18.563 108.658 18.4322C108.6 18.4049 108.598 18.3565 108.658 18.3276C108.958 18.1823 109.279 18.0805 109.606 18.0187C109.671 18.007 109.711 18.0404 109.7 18.0933ZM107.411 17.352C107.713 17.2062 108.032 17.1043 108.359 17.0409C108.426 17.0292 108.469 17.0632 108.454 17.1166C108.402 17.3292 108.354 17.5496 108.302 17.7755C108.293 17.8306 108.241 17.8556 108.188 17.8306C107.947 17.7093 107.688 17.5852 107.413 17.4549C107.359 17.4271 107.356 17.3798 107.411 17.352ZM110.298 16.8439C110.367 16.8344 110.409 16.8656 110.394 16.9196C110.34 17.1338 110.291 17.3553 110.241 17.5779C110.231 17.6325 110.182 17.6581 110.131 17.6325C109.885 17.5139 109.627 17.3893 109.355 17.2591C109.295 17.2301 109.294 17.1823 109.352 17.1533C109.651 17.0097 109.968 16.9046 110.298 16.8439ZM108.396 16.22C108.694 16.0759 109.015 15.9724 109.345 15.91C109.411 15.9006 109.453 15.9345 109.44 15.9863C109.385 16.2006 109.334 16.417 109.292 16.6441C109.279 16.6975 109.226 16.7248 109.174 16.6975C108.929 16.5812 108.675 16.456 108.4 16.3235C108.338 16.2963 108.338 16.2495 108.396 16.22ZM109.681 15.3558C109.984 15.2122 110.299 15.1081 110.629 15.0469C110.694 15.0369 110.734 15.0703 110.722 15.1231C110.671 15.3374 110.62 15.5555 110.572 15.7787C110.563 15.8371 110.512 15.8622 110.459 15.8355C110.214 15.7169 109.958 15.5906 109.683 15.4609C109.627 15.4348 109.621 15.3853 109.681 15.3558ZM111.116 14.6824C111.418 14.5377 111.734 14.433 112.064 14.3729C112.129 14.3624 112.171 14.3941 112.155 14.4464C112.105 14.6607 112.055 14.8816 112.006 15.1031C111.997 15.1604 111.944 15.186 111.892 15.1604C111.649 15.0419 111.392 14.9161 111.118 14.7864C111.061 14.7592 111.057 14.7113 111.116 14.6824Z" fill="white"/>
</svg>
