<svg width="234" height="166" viewBox="0 0 234 166" fill="none" xmlns="http://www.w3.org/2000/svg">
<path fill-rule="evenodd" clip-rule="evenodd" d="M24.9003 82.5573V101.499C45.1518 96.7134 66.7399 96.0567 92.3905 100.744C89.2272 117.042 83.423 128.749 74.4638 139.594C71.2073 143.532 71.7785 149.359 75.7356 152.598C79.6887 155.838 85.5455 155.271 88.7979 151.333C99.5636 138.306 106.668 125.998 110.516 106.477C111.196 103.015 114.197 101.57 117.021 101.57C117.021 90.0149 117.008 89.1889 117.008 86.1019C81.7503 77.0252 51.4663 76.9538 24.9003 82.5573Z" fill="#56BA8D"/>
<path fill-rule="evenodd" clip-rule="evenodd" d="M209.075 101.514C188.827 96.7341 167.251 96.0806 141.617 100.766C144.776 117.063 150.58 128.77 159.54 139.616C162.796 143.554 162.225 149.381 158.272 152.62C154.314 155.86 148.458 155.292 145.205 151.354C134.44 138.327 127.335 126.02 123.488 106.498C122.759 102.796 119.486 101.581 117.007 101.581V86.1093C152.253 77.0358 182.517 76.9721 209.075 82.572V101.514Z" fill="#FF9150"/>
<path fill-rule="evenodd" clip-rule="evenodd" d="M215.373 9.23895V107.783C215.373 107.909 215.378 108.035 215.378 108.162C215.96 122.117 212.176 133.137 204.727 139.962C197.514 146.567 187.074 148.901 175.078 146.724C170.033 145.809 165.2 149.143 164.281 154.159C163.363 159.175 166.711 163.987 171.75 164.901C190.266 168.261 206.163 163.755 217.295 153.555C228.162 143.606 234.733 127.911 233.935 107.589C233.935 102.877 233.935 9.23895 233.935 9.23895C233.935 4.1402 229.779 0 224.654 0C219.529 0 215.373 4.1402 215.373 9.23895Z" fill="#E45879"/>
<path fill-rule="evenodd" clip-rule="evenodd" d="M0.0653258 9.23898V107.585C-0.73275 127.897 5.83765 143.592 16.7045 153.54C27.8374 163.741 43.7336 168.247 62.25 164.887C67.2894 163.972 70.6375 159.161 69.7189 154.145C68.8004 149.129 63.9666 145.795 58.9222 146.71C46.926 148.887 36.4858 146.552 29.273 139.948C21.8243 133.123 18.0396 122.102 18.6218 108.147C18.6218 108.021 18.627 107.895 18.627 107.769V9.23898C18.627 4.1397 14.4708 0 9.34609 0C4.22134 0 0.0653258 4.1397 0.0653258 9.23898Z" fill="#8286DB"/>
</svg>
