<svg width="24" height="24" viewBox="0 0 24 24" fill="none" xmlns="http://www.w3.org/2000/svg">
<path fill-rule="evenodd" clip-rule="evenodd" d="M20.5 3H3.5C2.11929 3 1 4.11929 1 5.5V5.98357C0.999837 5.994 0.999837 6.00444 1 6.01486V18.5C1 19.8807 2.11929 21 3.5 21H20.5C21.8807 21 23 19.8807 23 18.5V6.00915C23.0001 6.00253 23.0001 5.9959 23 5.98928V5.5C23 4.11929 21.8807 3 20.5 3ZM20.8934 5.55399C20.7281 5.22694 20.388 5 20 5H4C3.61201 5 3.2719 5.22696 3.10654 5.55403L12 11.7794L20.8934 5.55399ZM3 7.92077V18C3 18.5477 3.45228 19 4 19H20C20.5477 19 21 18.5477 21 18V7.92072L12.5734 13.8193C12.2291 14.0603 11.7708 14.0603 11.4265 13.8193L3 7.92077Z" fill="#4F5B69"/>
</svg>
