<svg width="141" height="40" viewBox="0 0 141 40" fill="none" xmlns="http://www.w3.org/2000/svg">
<path fill-rule="evenodd" clip-rule="evenodd" d="M71.5681 15.3016H64.2527V19.0904H70.9868V20.5539H64.2527V24.6801H71.6616V26.1626H62.6022V13.8388H71.5681V15.3016ZM75.506 13.8388V24.6801H81.7719V26.1626H73.8928V13.8388H75.506ZM89.8564 13.8388V19.8039L95.8018 13.8388H98.1081L92.988 18.8472L98.2389 26.1626H96.1202L91.7677 19.9719L89.8557 21.8487V26.1626H88.1672V13.8388H89.8564ZM99.4212 15.7515C98.577 16.9331 98.1454 18.3404 98.1454 19.9909C98.1454 21.6603 98.577 23.0669 99.4212 24.2485C100.49 25.7493 102.048 26.4993 104.148 26.4993C106.25 26.4993 107.806 25.7493 108.838 24.2485C109.72 23.0669 110.151 21.6603 110.151 19.9909C110.151 18.3404 109.72 16.9331 108.838 15.7515C107.806 14.2514 106.25 13.5007 104.148 13.5007C102.048 13.5014 100.49 14.2514 99.4212 15.7515ZM104.148 14.9642C105.462 14.9642 106.493 15.471 107.281 16.427C108.05 17.3464 108.425 18.528 108.425 19.9909C108.425 21.4726 108.049 22.6922 107.281 23.592C106.493 24.567 105.461 25.0358 104.148 25.0358C102.799 25.0358 101.766 24.5676 101.016 23.592C100.247 22.6922 99.8725 21.472 99.8725 19.9909C99.8725 18.528 100.247 17.3464 101.016 16.427C101.803 15.471 102.835 14.9642 104.148 14.9642ZM112.345 13.8388V26.1626H113.996V20.873H118.029C119.492 20.873 120.243 21.5851 120.243 23.0669C120.243 24.5676 120.336 25.5995 120.505 26.1619H122.568V25.88C122.155 25.6551 121.968 25.2425 121.968 24.6612L121.836 22.4286C121.818 21.6596 121.65 21.0593 121.349 20.7212C121.18 20.4963 120.842 20.2714 120.374 20.0837C121.499 19.4278 122.061 18.4332 122.061 17.1581C122.061 14.9262 120.712 13.8381 118.029 13.8381H112.345V13.8388ZM113.996 15.2454H118.123C119.623 15.2454 120.374 15.9392 120.374 17.3085C120.374 18.753 119.529 19.4658 117.879 19.4658H113.996V15.2454ZM128.908 14.9642C126.994 14.9642 126.056 15.6769 126.056 17.1215C126.056 17.9277 126.563 18.4345 127.539 18.6602L131.065 19.4664C132.903 19.9353 133.842 21.0227 133.842 22.7484C133.842 24.0995 133.317 25.0562 132.228 25.7127C131.384 26.2568 130.315 26.5 129.039 26.5C127.444 26.5 126.189 26.0874 125.307 25.3184C124.463 24.5683 124.069 23.5358 124.069 22.1861H125.627C125.627 23.2166 126.001 23.9687 126.714 24.4742C127.314 24.8685 128.064 25.0562 129.002 25.0562C131.159 25.0562 132.228 24.38 132.228 22.9734C132.228 22.3358 132.041 21.867 131.684 21.5851C131.347 21.3046 130.653 21.0228 129.621 20.8161L127.089 20.2165C125.345 19.8039 124.463 18.8465 124.463 17.3085C124.463 16.2772 124.819 15.3951 125.475 14.7203C126.244 13.895 127.314 13.5014 128.72 13.5014C131.76 13.5014 133.353 14.8144 133.541 17.4399H131.965C131.947 16.5957 131.572 15.9392 130.915 15.4893C130.371 15.1519 129.695 14.9642 128.908 14.9642ZM17.2665 15.8084L13.7969 26.1626H12.1457L8.71325 15.8084H8.63805L8.71325 26.1626H7.08105V13.8388H9.46329L12.952 24.2492H13.0272L16.5158 13.8388H18.8981V26.1626H17.2659L17.3038 15.8084H17.2665ZM28.5205 16.221C27.7515 17.0835 27.3768 18.3031 27.3768 19.8784C27.3768 23.3101 28.7082 25.0358 31.4278 25.0358C33.3412 25.0358 34.5229 23.9111 34.9727 21.6231H36.586C36.2858 23.592 35.4043 24.9986 33.9598 25.8048C33.1535 26.2744 32.2158 26.4993 31.1839 26.4993C29.6452 26.4993 28.3701 25.9925 27.3761 24.9986C26.2128 23.8352 25.6504 22.1481 25.6504 19.9339C25.6504 18.0206 26.1566 16.4636 27.1885 15.3009C28.2197 14.082 29.6269 13.5 31.3709 13.5C32.8717 13.5 34.0906 13.9316 35.0283 14.7758C35.8346 15.4886 36.3034 16.4073 36.4721 17.5327H34.8406C34.5025 15.807 33.3405 14.9628 31.3703 14.9628C30.209 14.9642 29.2706 15.3768 28.5205 16.221ZM40.2813 13.8388V18.9407H46.7152V13.8388H48.3467V26.1626H46.7152V20.4035H40.2813V26.1626H38.5929V13.8388H40.2813ZM54.574 13.8388L49.9037 26.1626H51.6294L52.9046 22.5987H57.8567L59.0946 26.1626H60.8765L56.4495 13.8388H54.574ZM55.4183 15.6769L57.2564 21.1163H53.4486L55.381 15.6769H55.4183ZM21.6746 13.8388H23.3441V26.1626H21.6746V13.8388Z" fill="white"/>
</svg>
