<svg width="91" height="40" viewBox="0 0 91 40" fill="none" xmlns="http://www.w3.org/2000/svg">
<path fill-rule="evenodd" clip-rule="evenodd" d="M45.5589 5.81454C50.0452 5.80954 53.57 6.02085 57.3882 6.66785C61.5567 7.37427 65.4444 8.32713 68.575 10.1143C68.8063 10.2464 68.983 10.3326 69.2834 10.5246C70.5037 11.3053 72.0227 12.5558 72.3149 14.2337C72.551 15.5904 71.9143 16.6954 71.2274 17.4832C70.5144 18.3008 69.6399 18.9231 68.7067 19.4526C64.8997 21.6134 59.8803 22.7637 54.6697 23.3586C52.2483 23.6351 49.7091 23.8346 46.7287 23.8346C43.8311 23.8346 41.2725 23.718 38.804 23.4735C33.784 22.9763 28.526 21.928 24.5694 19.9284C23.5842 19.4307 22.6623 18.8872 21.8345 18.1561C21.0486 17.462 20.2994 16.6012 20.0882 15.4154C19.7332 13.4232 21.1426 11.9742 22.3123 11.0826C23.5659 10.127 25.1791 9.32867 26.7277 8.75225C29.9465 7.55381 33.8388 6.75755 37.7003 6.29038C40.2738 5.97908 42.5573 5.81777 45.5589 5.81454ZM45.6744 7.60337C42.1918 7.60337 38.8845 8.23317 35.9869 9.29383C34.5679 9.8132 33.3068 10.4511 32.1974 11.3781C31.2294 12.1871 30.0846 13.4844 30.3522 15.2676C30.583 16.8057 31.8107 17.9028 32.8565 18.6321C34.0239 19.4459 35.4243 20.0613 36.8436 20.5193C39.9101 21.5088 43.3453 21.9349 46.8935 21.8979C50.2643 21.8626 53.8099 21.2803 56.5973 20.1912C57.9718 19.654 59.2905 18.9964 60.3701 18.0905C61.3643 17.2563 62.4197 15.9089 62.1495 14.2337C61.9075 12.7333 60.7589 11.6361 59.6453 10.8693C58.4206 10.0258 57.1223 9.47072 55.6583 8.98194C53.4165 8.23361 50.8693 7.78968 48.4256 7.6691C47.6591 7.63117 46.6507 7.55866 45.7072 7.60337C45.6963 7.60396 45.6853 7.60337 45.6744 7.60337Z" fill="white"/>
<path fill-rule="evenodd" clip-rule="evenodd" d="M11.0104 27.2153C12.4973 27.2121 13.8202 27.1986 15.0302 27.4452C15.4359 27.5278 15.8917 27.6841 16.0352 27.9866C16.1699 28.2705 16.1176 28.7414 16.1176 29.4309C16.1176 30.7106 16.1176 31.8844 16.1176 33.2219C16.1176 33.4645 16.1484 33.7706 16.0847 33.9443C15.8864 34.4823 14.8082 34.6095 14.2559 34.6663C12.7685 34.8194 10.999 34.8093 9.4781 34.6663C8.88173 34.6101 7.8149 34.4826 7.58344 33.9768C7.44571 33.6761 7.51746 32.966 7.51746 32.5163C7.51746 31.4238 7.51746 30.6244 7.51746 29.4967C7.51746 28.9639 7.4373 28.2605 7.64928 27.9375C7.86406 27.6103 8.56908 27.4285 9.14862 27.3466C9.79518 27.2552 10.2884 27.2168 11.0104 27.2153ZM10.8785 28.1508C10.8189 28.2718 10.8455 28.6164 10.8455 28.8238C10.8455 30.0904 10.8455 31.1548 10.8455 32.4015C10.8455 32.8252 10.7616 33.5603 10.8949 33.7964C11.0329 34.0406 11.4144 34.0378 11.8011 34.0426C12.1073 34.0463 12.5742 34.0647 12.7237 33.8128C12.8591 33.5845 12.7732 32.9039 12.7732 32.4507C12.7732 31.2898 12.7732 30.7135 12.7732 29.595C12.7732 29.2878 12.8504 28.4199 12.7567 28.1837C12.6371 27.8821 11.8448 27.9021 11.5704 27.9211C11.3735 27.9346 10.9808 27.9433 10.8785 28.1508Z" fill="white"/>
<path fill-rule="evenodd" clip-rule="evenodd" d="M23.8775 27.2974C25.2125 27.2971 26.6889 27.2975 28.0786 27.2974C29.0432 29.7393 30.0114 32.1775 30.9618 34.6334C29.6988 34.6334 28.4357 34.6334 27.1724 34.6334C26.9641 34.0313 26.774 33.4114 26.563 32.8116C25.8531 32.7854 25.0319 32.7836 24.3223 32.8116C24.1195 33.3919 23.9645 34.0198 23.7952 34.6334C22.9329 34.6334 22.0707 34.6334 21.2085 34.6334C21.8502 32.8092 22.5286 30.9824 23.1854 29.152C23.406 28.5375 23.6601 27.8399 23.8775 27.2974ZM24.4871 31.9582C25.0642 31.9312 25.7552 31.9312 26.3323 31.9582C26.004 30.9943 25.6877 30.0183 25.3272 29.0864C25.0628 30.0592 24.7531 30.9871 24.4871 31.9582Z" fill="white"/>
<path fill-rule="evenodd" clip-rule="evenodd" d="M40.1386 30.2515C40.9226 29.4444 41.7424 28.5368 42.5604 27.642C42.6594 27.5336 42.8355 27.3212 42.9229 27.2974C43.1193 27.2438 43.4691 27.2974 43.6973 27.2974C44.4499 27.2974 45.2471 27.3109 45.9872 27.281C46.0191 27.3693 45.8973 27.4156 45.8554 27.4615C45.0012 28.3985 44.0831 29.3931 43.2029 30.3172C44.0749 31.7517 45.0076 33.2134 45.8391 34.6334C44.5704 34.6334 43.3017 34.6334 42.0332 34.6334C41.361 33.6071 40.7916 32.4784 40.1386 31.4332C40.1386 32.4999 40.1386 33.5666 40.1386 34.6334C38.9414 34.6334 37.7442 34.6334 36.547 34.6334C36.5358 32.2644 36.5689 29.7102 36.5304 27.3138C37.673 27.2757 38.974 27.3081 40.089 27.2974C40.1794 27.2879 40.1386 27.4957 40.1386 27.6092C40.1386 28.4434 40.1386 29.4074 40.1386 30.2515Z" fill="white"/>
<path fill-rule="evenodd" clip-rule="evenodd" d="M51.49 27.2974C52.6816 27.2974 53.8735 27.2974 55.0653 27.2974C55.0651 29.4036 55.0653 31.5972 55.0653 33.6487C56.2514 33.6595 57.4815 33.6268 58.6403 33.6651C58.6403 33.9879 58.6403 34.3106 58.6403 34.6334C56.2458 34.6334 53.8514 34.6334 51.4571 34.6334C51.4952 32.3837 51.463 29.721 51.4736 27.3302C51.4405 27.3156 51.4808 27.2582 51.49 27.2974Z" fill="white"/>
<path fill-rule="evenodd" clip-rule="evenodd" d="M63.9947 27.2974C66.3398 27.2974 68.6846 27.2974 71.0296 27.2974C71.0296 27.6092 71.0296 27.9211 71.0296 28.2329C69.8873 28.2329 68.7452 28.2329 67.6029 28.2329C67.5643 28.9496 67.5973 29.7372 67.5864 30.4813C68.4651 30.4921 69.3876 30.4595 70.2389 30.4977C70.2451 30.8142 70.227 31.117 70.2554 31.3512C69.3711 31.3512 68.487 31.3512 67.6029 31.3512C67.6029 32.1279 67.6029 32.9047 67.6029 33.6817C68.7066 33.7197 69.8819 33.6871 71.0133 33.6981C71.0133 34.0098 71.0133 34.3216 71.0133 34.6334C68.6682 34.6334 66.3233 34.6334 63.9784 34.6334C63.9784 32.1991 63.9784 29.7646 63.9784 27.3302C63.9713 27.2987 63.9895 27.2709 63.9947 27.2974Z" fill="white"/>
<path fill-rule="evenodd" clip-rule="evenodd" d="M85.0007 27.281C85.0148 27.2779 85.0161 27.2874 85.0172 27.2974C84.046 28.8299 82.9542 30.3848 81.9363 31.9255C81.947 32.8069 81.9148 33.8175 81.9529 34.617C80.7775 34.6553 79.5309 34.6224 78.3282 34.6334C78.3273 33.9915 78.3282 33.3136 78.3282 32.6148C78.3282 32.3911 78.3699 32.1366 78.3282 31.9419C78.2916 31.7711 78.0611 31.5382 77.9328 31.3512C77.0082 30.0019 76.0883 28.6261 75.2145 27.2974C76.483 27.2974 77.7515 27.2974 79.0201 27.2974C79.5813 28.177 80.0909 29.1082 80.6183 30.0217C81.1709 29.1281 81.6838 28.1946 82.2328 27.2974C83.1501 27.2865 84.111 27.3192 85.0007 27.281Z" fill="white"/>
</svg>
