<svg width="97" height="40" viewBox="0 0 97 40" fill="none" xmlns="http://www.w3.org/2000/svg">
<path d="M13.3149 23.1377L10.8838 25.5689L13.3149 28L15.746 25.5689L13.3149 23.1377ZM86.2472 26.9062C84.5769 26.6623 83.2594 25.7047 82.5132 24.1917C81.8179 22.7834 81.7104 21.1735 82.2085 19.6412C82.7581 17.9524 84.0611 16.7027 85.6999 16.2933C86.1952 16.1697 86.4622 16.1388 87.0273 16.14C87.4572 16.1409 87.6223 16.1542 87.8733 16.2078C88.6544 16.3744 89.2278 16.6861 89.8982 17.3088L90.2007 17.5898V13.0695H92.825V26.8006H90.2616V26.1445C90.2616 25.7837 90.2533 25.4885 90.2433 25.4885C90.2334 25.4885 90.0932 25.6134 89.932 25.766C89.4195 26.2507 88.7641 26.6377 88.1785 26.8013C87.6339 26.9534 86.8589 26.9955 86.2472 26.9062ZM52.4411 26.9047C51.8556 26.8137 51.3573 26.6426 50.9147 26.3806C50.5761 26.1801 50.0496 25.652 49.8582 25.3207C49.4006 24.5284 49.2726 23.5974 49.4938 22.6676C49.7974 21.3912 50.8717 20.4833 52.4356 20.1815C52.9799 20.0765 53.3673 20.0572 54.9348 20.0571H56.4529V19.9262C56.4529 19.5806 56.2621 19.1621 55.9741 18.8758C55.7581 18.6611 55.3615 18.4506 55.0187 18.3687C54.3522 18.2093 53.5167 18.2412 52.6997 18.4573C52.1703 18.5973 51.4004 18.9378 50.6477 19.3651L50.3502 19.534V18.2277C50.3502 17.0102 50.3538 16.9202 50.4036 16.9047C50.433 16.8955 50.6973 16.8036 50.991 16.7004C51.9373 16.3679 52.6482 16.2145 53.5499 16.1482C55.3681 16.0147 56.9445 16.4658 57.8716 17.3852C58.4156 17.9246 58.7304 18.5248 58.9288 19.4011L58.9979 19.7062L59.008 23.2534L59.0182 26.8006H56.4529V26.1445C56.4529 25.7837 56.444 25.4885 56.4332 25.4885C56.4225 25.4885 56.3023 25.595 56.1662 25.7251C55.4561 26.4044 54.7039 26.7856 53.8076 26.9202C53.5094 26.9649 52.7756 26.9566 52.4411 26.9047ZM38.4805 26.9072C37.0362 26.7098 35.7844 26.0263 34.9321 24.9698C33.9413 23.7415 33.5427 22.0234 33.8747 20.412C34.2136 18.7667 35.2852 17.3934 36.7831 16.6848C38.6089 15.821 40.8202 15.9715 42.4649 17.0713C42.8401 17.3222 43.367 17.8143 43.6526 18.1805C44.8912 19.7689 45.1338 22.0471 44.2634 23.917C43.4913 25.5756 41.9145 26.6806 39.9764 26.9211C39.6321 26.9638 38.8406 26.9565 38.4805 26.9072ZM71.0174 26.9197C68.9576 26.6796 67.2668 25.3906 66.572 23.5296C65.6496 21.0592 66.5731 18.2709 68.7543 16.9436C69.5127 16.4819 70.3371 16.2252 71.3205 16.1446C72.0313 16.0864 72.8684 16.1862 73.567 16.4127C73.9914 16.5502 74.6756 16.8936 75.0202 17.142C76.249 18.0277 77.0218 19.354 77.2024 20.8867C77.2495 21.2877 77.2268 22.162 77.1598 22.5243C76.716 24.9113 74.9382 26.5869 72.5088 26.9076C72.1415 26.9561 71.3831 26.9623 71.0174 26.9197ZM22.8779 26.7802C22.8667 26.769 22.8576 23.6795 22.8576 19.9147V13.0695H25.7663C28.8266 13.0695 29.0564 13.0777 29.7231 13.2102C30.8078 13.4258 31.6299 13.8423 32.3024 14.5169C32.6612 14.8768 32.8872 15.1888 33.0813 15.5925C33.7245 16.9297 33.7145 18.7621 33.0568 20.0719C32.8387 20.5064 32.6387 20.7787 32.2587 21.1582C31.454 21.962 30.4347 22.4253 29.0365 22.6227C28.8932 22.643 28.122 22.6634 27.1676 22.6723L25.5428 22.6874V26.8006H24.2205C23.4933 26.8006 22.8891 26.7914 22.8779 26.7802ZM45.824 26.7802C45.8128 26.769 45.8037 23.6795 45.8037 19.9147V13.0695H48.4278V26.8006H47.1361C46.4256 26.8006 45.8352 26.7914 45.824 26.7802ZM60.562 26.7802C60.5508 26.769 60.5416 24.4073 60.5416 21.5319V16.304H63.1355V17.623L63.4175 17.3544C64.2557 16.5568 65.0047 16.2378 66.1488 16.1915L66.6147 16.1727L66.5986 18.6382L66.141 18.6586C64.2114 18.7444 63.3327 19.4302 63.1671 20.9789C63.1477 21.1612 63.1355 22.3383 63.1355 24.0379V26.8006H61.859C61.1565 26.8006 60.5732 26.7914 60.562 26.7802ZM78.27 26.8006V16.304H80.8633V26.8006H78.27ZM10.5335 20.3562L8.10228 22.7874L10.5335 25.2185L12.9646 22.7874L10.5335 20.3562ZM16.0935 20.3474L13.6624 22.7785L16.0935 25.2097L18.5246 22.7785L16.0935 20.3474ZM54.6373 24.6207C55.0827 24.4875 55.3587 24.3246 55.6748 24.0086C55.991 23.6924 56.1566 23.4237 56.2993 22.9957C56.3892 22.726 56.4828 22.227 56.4832 22.0158L56.4834 21.9148L54.9806 21.9266C53.664 21.9371 53.4513 21.9453 53.2642 21.993C52.4486 22.2009 52.0284 22.6946 52.0284 23.445C52.0284 23.9675 52.2525 24.3315 52.7037 24.5421C53.035 24.6966 53.2266 24.7258 53.8287 24.7137C54.3011 24.7041 54.3943 24.6934 54.6373 24.6207ZM39.9909 24.6366C41.2601 24.3081 42.112 23.0706 42.1114 21.5559C42.1108 19.7895 41.0373 18.5001 39.4764 18.3906C37.6976 18.2658 36.3476 19.7559 36.446 21.7353C36.5224 23.2708 37.428 24.4294 38.7469 24.6794C39.0719 24.741 39.6667 24.7205 39.9909 24.6366ZM72.4462 24.6386C72.8856 24.523 73.3304 24.2583 73.6667 23.9121C74.0362 23.5312 74.3033 23.0491 74.4462 22.5045C74.542 22.1385 74.5792 21.3313 74.5171 20.9481C74.3088 19.65 73.5016 18.7136 72.3659 18.4509C72.0174 18.3704 71.3565 18.3772 71.0324 18.4648C70.1864 18.693 69.5122 19.2941 69.151 20.1424C68.9593 20.5936 68.8512 21.2409 68.8839 21.7482C68.9842 23.31 69.8734 24.4243 71.2252 24.6815C71.5343 24.7403 72.1398 24.7191 72.4462 24.6386ZM88.1625 24.6376C89.1636 24.3767 89.9214 23.5738 90.2023 22.4768C90.4068 21.6777 90.317 20.7192 89.9713 20.0065C89.4699 18.9721 88.542 18.3797 87.424 18.3797C86.1952 18.3797 85.2046 19.113 84.7597 20.3516C84.5974 20.8033 84.5276 21.4313 84.5835 21.9337C84.6777 22.7769 84.9464 23.3737 85.4711 23.9046C85.8899 24.3283 86.342 24.5742 86.896 24.6793C87.2201 24.7408 87.8456 24.7201 88.1625 24.6376ZM7.75198 17.5748L5.3208 20.0059L7.75198 22.437L10.1831 20.0059L7.75198 17.5748ZM13.312 17.5659L10.8809 19.9971L13.312 22.4282L15.7431 19.9971L13.312 17.5659ZM18.8779 17.563L16.4468 19.9941L18.8779 22.4252L21.3091 19.9941L18.8779 17.563ZM28.7045 20.3157C29.9805 20.0964 30.7148 19.2761 30.7819 17.9951C30.8524 16.6492 30.1579 15.7437 28.823 15.441C28.5717 15.3841 28.4208 15.3777 27.0456 15.3661L25.5428 15.3535V20.3622H26.9882C28.1452 20.3622 28.4876 20.353 28.7045 20.3157ZM10.5305 14.7844L8.09934 17.2155L10.5305 19.6467L12.9616 17.2155L10.5305 14.7844ZM16.0964 14.7815L13.6653 17.2126L16.0964 19.6438L18.5276 17.2126L16.0964 14.7815ZM13.3149 12L10.8838 14.4311L13.3149 16.8622L15.7461 14.4311L13.3149 12ZM78.2395 15.2055V13.0695H80.8944V15.2055H78.2395Z" fill="white"/>
</svg>
