<svg width="95" height="40" viewBox="0 0 95 40" fill="none" xmlns="http://www.w3.org/2000/svg">
<path fill-rule="evenodd" clip-rule="evenodd" d="M7.8357 26.499H6.66528C6.56762 26.499 6.32349 26.499 6.32349 26.3517C6.32349 26.254 6.37231 26.2044 6.51879 26.1553C7.59204 25.8117 7.8357 25.2234 7.8357 24.3901V15.6099C7.8357 14.8247 7.59157 14.236 6.51879 13.8437C6.37231 13.8437 6.32349 13.7455 6.32349 13.6964C6.32349 13.5005 6.56762 13.5491 6.66528 13.5491H16.3231C18.5179 13.5491 20.3231 15.3148 20.3231 17.5219C20.3231 19.7295 18.5179 21.4947 16.3231 21.4947H11.4451V24.4869C11.4944 25.2716 11.7381 25.8107 12.7625 26.1544C12.909 26.204 12.9573 26.2531 12.9573 26.3508C12.9573 26.4981 12.7137 26.4981 12.616 26.4981H7.8357V26.499ZM79.8323 21.7411H82.1248L79.8323 17.817L79.5877 17.4242L77.5398 21.7411H79.8323ZM79.8323 13.501H81.3933L87.929 25.0775C88.1244 25.3707 88.368 25.6658 88.6615 25.8121C88.9051 26.0085 89.1976 26.0581 89.4413 26.1558C89.5394 26.2054 89.6366 26.2545 89.6366 26.3522C89.6366 26.4995 89.3929 26.4995 89.2948 26.4995H83.4905C83.3933 26.4995 83.0999 26.4995 83.0999 26.3522C83.0999 26.2545 83.198 26.2049 83.2962 26.1558C83.5887 26.0581 83.783 25.9108 83.8802 25.6167C83.9783 25.273 83.8802 25.0775 83.6365 24.6352C83.3053 23.9273 82.9639 23.2243 82.6126 22.5263H77.1492L77.1008 22.624C77.0515 22.8204 76.6619 23.5068 76.3684 24.2428C75.9788 25.0275 75.8323 25.2234 75.9295 25.6162C75.9788 25.9103 76.2219 26.0576 76.5144 26.1553C76.6126 26.2049 76.6619 26.254 76.6619 26.3517C76.6619 26.499 76.4173 26.499 76.3201 26.499H73.637C73.5398 26.499 73.2952 26.499 73.2952 26.3517C73.2952 26.254 73.3445 26.2044 73.4905 26.1553C73.7351 26.0576 74.0266 26.008 74.2708 25.8116C74.5632 25.6653 74.8079 25.3702 75.0022 25.0771L75.344 24.3406L79.0511 16.5418L78.514 15.6099C78.0271 14.8247 77.5388 14.3342 77.0022 14.0401C76.7586 13.8928 76.5144 13.8928 76.2708 13.7946C76.1243 13.7455 76.0755 13.6964 76.1243 13.5982C76.1243 13.5 76.2215 13.5491 76.2708 13.5H79.8323V13.501ZM65.2472 26.4495H65.4426C74.4182 26.4495 74.321 13.5496 65.4426 13.5496H58.0773C57.9308 13.5496 57.6876 13.5005 57.6876 13.6969C57.6876 13.746 57.7848 13.8442 57.882 13.8442C58.9552 14.1874 59.1993 14.7761 59.2477 15.5121V24.4883C59.1993 25.273 58.9552 25.8121 57.882 26.1558C57.7848 26.2054 57.6876 26.2545 57.6876 26.3522C57.6876 26.4995 57.9313 26.4995 58.0773 26.4995H62.8087V26.4499H65.2472V26.4495ZM65.2472 14.4815C66.6139 14.4815 67.736 15.6099 67.736 16.9828V22.9672C67.736 24.3406 66.6139 25.4689 65.2472 25.4689H62.8083V14.4815H65.2472ZM46.6631 21.7411H48.9556L46.6631 17.817L46.4195 17.4242L44.3711 21.7411H46.6631ZM46.6631 13.501H48.273L54.8092 25.0775C54.9557 25.3707 55.1998 25.6658 55.4923 25.8121C55.7359 26.0085 56.0294 26.0581 56.3219 26.1558C56.419 26.2054 56.5162 26.2545 56.5162 26.3522C56.5162 26.4995 56.2237 26.4995 56.1266 26.4995H50.3228C50.2246 26.4995 49.981 26.4995 49.981 26.3522C49.981 26.2545 50.0293 26.2049 50.1753 26.1558C50.42 26.0581 50.6631 25.9108 50.7124 25.6167C50.8096 25.273 50.7124 25.0775 50.5171 24.6352C50.1753 23.8996 49.7857 23.2127 49.4448 22.5263H43.98L43.9317 22.624C43.8828 22.8204 43.541 23.5068 43.1997 24.2428C42.8584 25.0275 42.6636 25.2234 42.7612 25.6162C42.8589 25.9103 43.0537 26.0576 43.3467 26.1553C43.4439 26.2049 43.5415 26.254 43.5415 26.3517C43.5415 26.499 43.2979 26.499 43.1518 26.499H40.5171C40.4194 26.499 40.1265 26.499 40.1265 26.3517C40.1265 26.254 40.2241 26.2044 40.3218 26.1553C40.6147 26.0576 40.8584 26.008 41.1514 25.8116C41.395 25.6653 41.688 25.3702 41.834 25.0771L42.1753 24.3406L45.9317 16.5418L45.395 15.6099C44.9072 14.8247 44.3706 14.3342 43.8828 14.0401C43.5899 13.8928 43.395 13.8928 43.1021 13.7946C43.0044 13.7455 42.9068 13.6964 42.9561 13.5982C43.0044 13.5 43.1021 13.5491 43.1514 13.5H46.6631V13.501ZM30.5663 22.0848C31.6884 22.4767 33.0541 22.5744 34.1269 22.2321L38.3711 25.9108L38.7124 26.2049C38.7617 26.2545 38.7617 26.3026 38.7617 26.3522C38.7617 26.4995 38.5175 26.4995 38.4199 26.4995H33.9325L30.5668 23.7037L27.8349 21.4961V24.5379C27.8842 25.2735 28.1767 25.8126 29.2006 26.1563C29.2983 26.2059 29.3471 26.255 29.3471 26.3527C29.3471 26.5 29.1029 26.5 29.0053 26.5H23.1029C22.9569 26.5 22.7128 26.5 22.7128 26.3527C22.7128 26.255 22.8104 26.2054 22.9076 26.1563C24.0785 25.7645 24.225 25.1757 24.2733 24.2438V15.7567C24.2245 14.8738 24.078 14.236 22.9076 13.8437C22.8099 13.8437 22.7128 13.7455 22.7128 13.6964C22.7128 13.5005 22.9569 13.5491 23.1029 13.5491H32.6147C33.1341 13.5469 33.6489 13.6481 34.1292 13.847C34.6096 14.0459 35.046 14.3384 35.4133 14.7078C35.7807 15.0771 36.0716 15.5159 36.2695 15.9989C36.4673 16.4819 36.568 16.9995 36.5659 17.5219C36.5681 18.0443 36.4674 18.5619 36.2696 19.0449C36.0718 19.528 35.7808 19.9668 35.4135 20.3362C35.0461 20.7055 34.6097 20.9981 34.1293 21.1969C33.6489 21.3957 33.1342 21.497 32.6147 21.4947H29.5419C29.6884 21.7888 30.0297 21.8875 30.3222 22.0348C30.4198 22.0353 30.4687 22.0848 30.5663 22.0848ZM30.5663 20.5642H30.9565C32.2245 20.5642 33.2978 19.1903 33.2978 17.4242C33.2978 15.7076 32.2245 14.3342 30.9565 14.3342H27.8344V20.5642H30.5663ZM14.2254 14.3347H11.4451V20.5647H14.6648C15.9818 20.5647 17.0062 19.1908 17.0062 17.4246C17.0062 15.7081 15.9818 14.3347 14.6648 14.3347H14.2254Z" fill="white"/>
</svg>
