<svg width="90" height="40" viewBox="0 0 90 40" fill="none" xmlns="http://www.w3.org/2000/svg">
<g clip-path="url(#clip0_4309_2183)">
<path d="M59.7301 0.935375C58.7422 1.50553 57.933 2.21762 57.2602 3.03339C56.5785 3.85997 56.0592 4.86587 55.5503 5.87445C55.0121 6.94167 54.6898 8.08951 54.498 9.38571C54.303 10.7057 54.2469 12.138 54.1765 13.6109C54.0016 17.2694 54.1303 21.1158 53.8403 24.6546C53.8156 24.9556 53.7986 25.3228 53.7231 25.6743C53.6647 25.9473 53.5015 26.3976 53.6207 26.6359C53.8279 27.0482 54.6281 26.6683 54.863 26.5483C55.732 26.1061 56.524 25.5629 56.7775 24.5816C56.9494 23.9165 56.8801 22.9197 56.8801 22.1049C56.8801 20.3244 56.9384 18.7197 56.9384 16.9909C56.9384 16.1477 56.9572 15.3063 56.9969 14.4704C57.0756 12.8098 57.052 11.1755 57.2596 9.56042C57.4588 8.0135 57.6857 6.60293 58.1511 5.29155C58.5733 4.10219 59.2266 2.7953 60.1095 2.07168C60.5786 1.68716 61.2962 1.37307 62.0678 1.62002C62.7172 1.82776 63.1482 2.26788 63.3978 2.88757C63.9452 4.2474 63.49 6.1503 63.0178 7.18559C61.918 9.59733 60.1663 11.2275 58.5457 13.0571C58.1592 13.4933 57.7242 14.1323 57.844 14.9074C57.9595 15.6545 58.3921 16.0554 58.8087 16.5392C59.1779 16.9683 59.6078 17.4669 60.0363 17.8942C60.491 18.3478 60.9341 18.7326 61.2056 19.322C61.5211 20.0075 61.3842 20.8195 61.0886 21.4056C60.7951 21.9875 60.4343 22.5113 60.0802 22.979C59.3026 24.006 58.5118 24.9208 57.7129 25.7909C57.3308 26.2066 56.8935 26.6804 56.456 27.1167C56.2588 27.3133 56.0229 27.5419 55.813 27.7724C55.5848 28.0227 55.3849 28.2388 55.2576 28.5153C54.7802 29.5528 55.4375 30.8127 55.8276 31.5023C55.96 31.7361 56.1329 32.1273 56.4414 32.1869C56.6896 32.235 56.8396 32.12 56.9383 32.0414C57.1048 31.9088 57.2199 31.701 57.3475 31.4876C57.7101 30.88 58.1395 30.2858 58.5459 29.7684C59.9614 27.9666 61.5175 26.2232 63.0619 24.5817C63.6929 23.9109 64.3632 23.297 64.7426 22.3816C64.9395 21.9069 65.0495 21.3342 64.9764 20.7351C64.8418 19.6311 64.2285 18.8844 63.4857 18.3459C62.3035 17.4884 61.2925 16.7493 60.2266 15.7815C59.851 15.4404 59.0533 14.8112 59.452 14.1206C59.6331 13.807 59.9996 13.612 60.3289 13.3921C60.6767 13.1598 60.9617 12.9594 61.2789 12.7365C63.1452 11.4251 64.878 9.98136 66.0725 7.8848C66.4503 7.22213 66.7966 6.4803 66.964 5.56825C67.3279 3.58412 66.5877 1.72577 65.5902 0.731159C65.0271 0.169746 64.3351 -0.1951 63.2372 -0.143014C61.8931 -0.0789079 60.689 0.381975 59.7301 0.935375ZM21.2641 38.5978C21.6867 37.9917 21.6733 37.1363 21.6733 36.1209C21.6733 35.5561 21.6163 34.8973 22.1702 34.8827C22.3498 34.8779 22.5904 35.0335 22.7986 35.1302C25.4203 36.3501 27.8822 37.6102 30.486 38.8309C30.8651 39.0087 31.2824 39.3157 31.7867 39.2971C32.2535 39.2794 32.5179 38.9134 32.7366 38.5833C32.9739 38.225 33.2038 37.8575 33.2774 37.4468C33.4278 36.6063 32.556 36.37 31.9767 36.0918C28.8859 34.609 25.806 33.1013 22.7402 31.5898C22.4961 31.4696 22.209 31.3754 22.024 31.2403C21.619 30.9441 21.761 30.0518 21.761 29.2735C21.761 28.9934 21.7756 28.7433 21.7756 28.4575C21.7756 28.1746 21.7432 27.8604 21.8048 27.6559C21.8935 27.3623 22.2153 27.225 22.5063 27.0441C25.1327 25.4117 27.2538 23.4127 29.0976 21.0267C29.7745 20.1509 30.4196 19.2433 30.939 18.273C31.4804 17.2615 31.9132 16.1715 32.0351 14.7909C32.1653 13.3167 31.7815 12.0533 31.1875 11.1048C30.6476 10.2428 29.7931 9.45965 28.7468 8.96307C27.4718 8.35795 25.661 8.07166 23.8655 8.29287C23.5506 8.33172 23.2506 8.37811 22.9448 8.43857C21.1743 8.78848 19.5446 9.27644 17.9465 9.83724C14.7609 10.9552 11.8577 12.2866 9.13384 13.8293C8.23588 14.3379 7.33062 14.8563 6.48857 15.4465C5.65882 16.028 4.97119 16.751 4.6325 17.8505C4.39257 18.6295 4.38514 19.6944 4.36943 20.7788C4.36492 21.0919 4.41084 21.5016 4.66173 21.5365C4.86463 21.5645 5.09274 21.3208 5.2317 21.1722C6.26752 20.0652 7.51014 19.1563 8.72462 18.2876C12.3061 15.7255 16.2481 13.703 20.5187 11.8333C21.3803 11.456 22.2864 11.1141 23.2517 10.9154C24.3093 10.6977 25.5276 10.6292 26.5838 10.7843C27.6875 10.9462 28.4788 11.2766 29.0537 11.9644C29.6399 12.6657 29.9014 13.5397 29.9014 14.7618C29.9014 15.9311 29.6454 16.9753 29.3314 17.8359C28.6766 19.6308 27.4735 20.8742 26.3208 22.1194C25.4787 23.0288 24.4835 23.9287 23.4271 24.6982C23.1835 24.8756 22.5994 25.3463 22.214 25.31C21.7768 25.2689 21.8388 24.5514 21.8633 24.0279C21.8868 23.5239 21.9024 22.9916 21.9071 22.5419C21.9334 20.0351 22.0327 17.5664 22.0825 15.053C22.0926 14.5445 22.1553 13.9778 22.0679 13.5815C21.8584 12.6311 20.824 13.253 20.2849 13.5232C19.8876 13.7223 19.5952 13.8514 19.3349 14.1351C18.9929 14.508 19.0934 15.3457 19.0719 16.0292C19.0546 16.5774 19.0426 17.1485 19.0426 17.6901C19.0426 20.7901 18.9437 23.7065 18.9111 26.8108C18.9081 27.095 18.9341 27.3858 18.8526 27.5974C18.767 27.8198 18.592 27.8873 18.3557 28.0198C17.2865 28.6209 16.2319 29.2044 15.1697 29.7975C14.8435 29.9796 14.3221 30.1762 14.3221 30.6424C14.3221 31.0739 14.705 31.1734 15.0236 31.3273C16.0199 31.8082 16.9136 32.2631 17.9027 32.6967C18.3755 32.9042 18.6918 33.0259 18.7942 33.5127C18.8965 33.9984 18.8088 34.5613 18.8088 35.0721C18.8088 36.7813 18.733 38.2298 18.7211 39.9091C19.8222 39.6445 20.7127 39.3886 21.2641 38.5978ZM81.1699 14.5289C80.7743 15.165 80.4928 15.6838 80.0884 16.3064C79.9356 16.5417 79.6439 17.0049 79.27 16.9183C78.8468 16.8204 79.1564 15.7201 79.1238 15.3448C79.0819 14.8669 78.7735 14.3361 78.2177 14.4123C77.7661 14.4744 77.3847 15.0219 77.1509 15.3885C76.6196 16.2215 76.2996 17.295 75.8501 18.186C75.6163 18.6495 75.3809 19.099 75.0171 19.4098C74.8758 19.5302 74.6294 19.6928 74.4033 19.6574C74.1898 19.6241 74.0065 19.2839 73.921 19.0019C73.8321 18.7088 73.7792 18.3358 73.7456 18.0403C73.643 17.1393 73.7384 16.0299 73.0587 15.7674C72.5579 15.574 72.1335 15.95 71.9334 16.1754C71.807 16.3174 71.7116 16.4788 71.5242 16.5396C71.2497 16.6287 70.9765 16.5411 70.7204 16.5542C69.9578 16.5931 69.3195 17.003 68.8497 17.3409C68.1959 17.8113 67.6191 18.485 67.1544 19.1768C66.6795 19.8842 66.3105 20.6699 66.0729 21.6245C65.8244 22.6224 65.7801 23.8967 66.5552 24.3343C67.2006 24.6988 67.9834 24.1694 68.3966 23.8681C69.2616 23.2382 69.7519 22.5907 70.4427 21.8138C70.5887 21.6494 70.7478 21.4691 70.9104 21.2599C71.0334 21.1017 71.2057 20.7161 71.4073 20.7498C71.5669 20.7764 71.655 21.1173 71.7291 21.2888C71.8274 21.5169 71.9085 21.708 72.0066 21.8717C72.2114 22.213 72.577 22.6735 73.0149 22.7313C73.9321 22.8522 74.514 22.2367 74.915 21.7261C75.1209 21.4636 75.3122 21.1937 75.5144 20.8665C75.6578 20.6339 75.89 20.0535 76.2159 20.0944C76.422 20.1203 76.423 20.3829 76.4789 20.6627C76.6106 21.3217 76.9836 21.8611 77.7211 21.5514C78.0983 21.3927 78.4289 21.0506 78.7146 20.7062C79.3267 19.969 79.6656 19.2928 80.1326 18.4188C80.327 18.0551 80.5168 17.3861 80.9364 17.3698C81.4667 17.3493 81.5685 18.1709 81.6672 18.5644C81.8735 19.3882 82.1497 20.3102 82.8656 20.6187C83.3074 20.809 83.8132 20.6831 84.1667 20.5313C84.5663 20.3591 84.8453 20.1312 85.0874 19.8901C85.4122 19.5664 85.9318 19.0029 86.0958 18.5498C86.1473 18.4077 86.2131 18.0465 85.9935 17.9816C85.7178 17.9002 85.5119 18.3006 85.2335 18.3312C84.7974 18.3792 84.4385 18.0763 84.2544 17.8068C83.9243 17.3237 83.7818 16.5572 83.6113 15.8253C83.4417 15.0972 83.3376 14.3573 82.9244 13.8876C82.757 13.6973 82.4597 13.5367 82.1644 13.567C81.613 13.624 81.4159 14.1331 81.1699 14.5289ZM70.8081 18.3023C71.5312 18.1949 71.1455 19.0893 70.9688 19.4097C70.7982 19.7192 70.6162 19.994 70.4573 20.2546C70.2738 20.555 70.0933 20.8195 69.9019 21.056C69.7157 21.2862 69.4684 21.5796 69.1858 21.697C69.0427 21.7565 68.7379 21.785 68.6302 21.7117C68.374 21.5372 68.6137 20.8888 68.7179 20.6334C69.0119 19.9127 69.3295 19.4409 69.8286 18.9435C70.086 18.6871 70.4216 18.3598 70.8081 18.3023ZM47.2637 21.5074C46.8349 21.8643 46.3817 22.3777 46.2699 23.0521C46.0518 24.3644 47.2283 24.928 48.4766 24.6985C49.4217 24.5247 50.1639 24.0039 50.6105 23.3583C50.8292 23.0421 51.0522 22.5514 51.0051 22.0177C50.926 21.1231 50.0707 20.6874 49.0758 20.765C48.3012 20.8247 47.7232 21.1252 47.2637 21.5074ZM42.967 22.4547C42.5481 23.1214 42.2119 23.8091 41.8709 24.5235C41.6524 24.9812 41.4422 25.4676 41.1547 25.9223C40.958 26.2333 40.518 26.9329 40.0148 26.8985C39.7773 26.8819 39.5962 26.6318 39.5179 26.476C39.352 26.1461 39.2597 25.6244 39.211 25.1646C39.1636 24.7176 39.2433 24.0217 39.0502 23.6932C38.8167 23.2961 38.3095 23.43 37.998 23.6643C37.6093 23.9562 37.5416 24.3276 37.3988 24.83C37.1051 25.862 36.743 26.9035 36.2003 27.7148C36.0024 28.0107 35.6715 28.4587 35.265 28.4287C35.0185 28.4107 34.8048 28.1363 34.6658 27.8751C34.3834 27.3441 34.2121 26.78 34.1104 26.1559C34.052 25.7966 34.0539 25.4615 33.9204 25.2087C33.8415 25.0595 33.6811 24.8975 33.5405 24.83C33.1236 24.6301 32.4797 24.8436 32.2105 25.0046C31.9114 25.1838 31.821 25.5187 31.5382 25.6311C31.1637 25.7802 30.8902 25.6179 30.5006 25.602C29.7071 25.5694 29.1699 25.9349 28.7176 26.3305C27.8772 27.0652 27.1192 28.2139 26.7446 29.3755C26.5483 29.9844 26.3624 30.8147 26.5108 31.5754C26.6458 32.2683 27.0893 32.8087 27.753 32.8428C28.4936 32.8808 29.0817 32.4557 29.5506 32.1143C30.0748 31.7324 30.4118 31.3467 30.8221 30.876C31.1004 30.5566 31.4376 30.2311 31.6844 29.8564C31.7431 29.7672 31.8836 29.536 32.0205 29.5503C32.189 29.5679 32.2435 29.9024 32.3274 30.1041C32.4149 30.314 32.528 30.5174 32.6197 30.6724C32.8129 30.9985 33.1228 31.4073 33.5112 31.5176C33.9735 31.6487 34.508 31.3857 34.8266 31.1677C35.6416 30.6106 36.1742 29.8074 36.668 28.9241C36.7628 28.7546 36.9196 28.5088 37.1065 28.5308C37.2766 28.551 37.322 28.8271 37.3841 29.0117C37.5674 29.5558 37.8721 30.1163 38.3926 30.294C38.7252 30.4076 38.9782 30.2942 39.1964 30.1628C39.7655 29.82 40.1808 29.2117 40.5409 28.6477C40.6645 28.4541 40.8052 28.1733 41.0378 28.1813C41.4683 28.1964 41.3595 28.9677 41.3593 29.4636C41.3593 30.0224 41.3301 30.5723 41.3301 31.0806C41.3301 32.1981 41.308 33.1603 41.2717 34.3152C41.2222 35.8905 41.2013 37.5438 41.1694 39.1523C41.1594 39.6533 41.0746 40.4174 41.3155 40.6239C41.5038 40.7851 41.9774 40.7259 42.4116 40.7259C42.7716 40.7259 43.2146 40.7745 43.4493 40.6968C43.9163 40.5423 43.8112 39.9735 43.8292 39.3275C43.9045 36.6304 43.9011 33.9452 43.9754 31.2851C44.0524 28.5289 44.0558 25.9797 44.1215 23.2427C44.128 22.973 44.1974 22.3548 44.1069 22.1065C44.0269 21.8865 43.7968 21.8037 43.6246 21.8298C43.3087 21.8759 43.1291 22.1965 42.967 22.4547ZM31.3044 26.9857C32.1133 26.8564 31.619 28.0358 31.4506 28.3697C31.1039 29.0569 30.6771 29.7899 30.1645 30.322C29.9736 30.52 29.443 31.0045 29.1122 30.7592C28.8601 30.5721 29.0653 29.8756 29.156 29.5789C29.2823 29.1665 29.422 28.833 29.5799 28.5591C29.9117 27.9829 30.4605 27.3687 30.9975 27.0877C31.0864 27.0412 31.1952 27.0031 31.3044 26.9857Z" fill="white"/>
</g>
<defs>
<clipPath id="clip0_4309_2183">
<rect width="89.4443" height="40" fill="white" transform="translate(0.109863)"/>
</clipPath>
</defs>
</svg>
