<svg width="134" height="40" viewBox="0 0 134 40" fill="none" xmlns="http://www.w3.org/2000/svg">
<path fill-rule="evenodd" clip-rule="evenodd" d="M48.5882 19.0009C48.5882 25.6182 53.9718 31 60.5891 31C67.2064 31 72.59 25.6182 72.59 19.0009C72.59 12.3835 67.2064 7 60.5891 7C53.9718 7 48.5882 12.3835 48.5882 19.0009ZM50.1694 19.0009C50.1694 13.2545 54.8428 8.58118 60.5891 8.58118C66.3354 8.58118 71.0088 13.2528 71.0088 19.0009C71.0088 24.7472 66.3354 29.4205 60.5891 29.4205C54.8428 29.4205 50.1694 24.7472 50.1694 19.0009Z" fill="white"/>
<path fill-rule="evenodd" clip-rule="evenodd" d="M62.3192 19.3876H65.2402C66.2208 19.3876 66.6537 19.6237 66.9515 20.3236C67.2201 19.6768 67.6753 19.4013 68.4933 19.391L68.7996 19.3876V23.2464H65.0007C65.3549 22.9367 65.5363 22.538 65.5363 22.0708C65.5363 21.2152 64.8672 20.5974 63.9397 20.5974C62.9249 20.5974 62.2507 21.1844 62.2507 22.0708C62.2507 22.6441 62.5519 23.053 63.1183 23.2464C62.5604 23.5185 62.2507 23.9976 62.2507 24.5914C62.2507 25.5378 62.9369 26.0289 64.2597 26.0289C64.3692 26.0289 64.4719 26.0255 64.7303 26.0101L64.7953 26.0066V27.3072H62.3192C61.3352 27.3072 60.904 27.0676 60.6079 26.3591C60.3119 27.0676 59.8806 27.3072 58.895 27.3072H56.4188V26.0066L56.4856 26.0101C56.744 26.0255 56.8484 26.0289 56.9664 26.0289C58.2841 26.0289 58.9754 25.5343 58.9754 24.5914C58.9754 24.0028 58.6605 23.5202 58.0958 23.2464C58.6623 23.053 58.9651 22.6458 58.9651 22.0708C58.9651 21.181 58.2995 20.5974 57.2864 20.5974C56.3607 20.5974 55.6899 21.2152 55.6899 22.0708C55.6899 22.5465 55.8661 22.9418 56.2135 23.2464H52.4146V19.3876L52.7226 19.391C53.5388 19.4013 53.9957 19.6768 54.2627 20.3236C54.557 19.6203 54.9814 19.3876 55.9739 19.3876H58.895C59.8824 19.3876 60.305 19.6186 60.6079 20.3236C60.9023 19.6203 61.3266 19.3876 62.3192 19.3876ZM58.859 18.6141H55.938C54.9574 18.6141 54.5245 18.378 54.2267 17.6781C53.9581 18.3249 53.5046 18.5987 52.6849 18.6107L52.3769 18.6141V14.757H56.1775C55.8233 15.065 55.6419 15.4637 55.6419 15.9309C55.6419 16.7848 56.3127 17.4026 57.2385 17.4026C58.2533 17.4026 58.9275 16.8173 58.9275 15.9309C58.9275 15.3559 58.6263 14.9487 58.0599 14.757C58.6178 14.4832 58.9275 14.0041 58.9275 13.4086C58.9275 12.464 58.2396 11.9728 56.9185 11.9728C56.7953 11.9728 56.6772 11.978 56.3829 11.9951V10.6945H58.859C59.843 10.6945 60.2759 10.9341 60.5703 11.6409C60.8663 10.9324 61.2993 10.6945 62.2832 10.6945H64.7594V11.9951C64.4633 11.9763 64.3435 11.9728 64.2101 11.9728C62.8958 11.9728 62.2028 12.4674 62.2028 13.4086C62.2028 13.9972 62.5177 14.4798 63.0807 14.757C62.5142 14.9487 62.2131 15.3559 62.2131 15.9309C62.2131 16.819 62.8787 17.4026 63.8918 17.4026C64.8176 17.4026 65.4884 16.7848 65.4884 15.9309C65.4884 15.4552 65.3121 15.0599 64.963 14.757H68.7636V18.6141L68.4556 18.6107C67.6377 18.5987 67.1842 18.3249 66.9155 17.6781C66.6212 18.3814 66.1968 18.6141 65.2043 18.6141H62.2832C61.2958 18.6141 60.8732 18.3831 60.5703 17.6781C60.2777 18.3814 59.8516 18.6141 58.859 18.6141ZM14.7025 14.8032V16.3519H11.5692V23.2772H9.43186V16.3519H6.28662V14.8032H14.7025ZM23.0704 15.1403L23.1029 15.1574C23.3664 15.296 23.541 15.4021 23.7429 15.5459C24.015 15.7529 24.2426 15.9686 24.4154 16.1842C24.9784 16.843 25.3155 17.8766 25.3155 18.9564C25.3155 19.2986 25.2779 19.7059 25.2197 20.0361C24.9698 21.2032 24.4 22.0725 23.4845 22.68C22.6237 23.2498 21.4584 23.5544 20.1407 23.5544C18.1095 23.5544 16.5146 22.8699 15.6744 21.6327C15.1936 20.9551 14.9181 20.0105 14.9181 19.0402C14.9181 17.5703 15.4622 16.3758 16.4924 15.5852C17.3172 14.9504 18.486 14.5739 19.7917 14.5243C20.969 14.4798 22.2062 14.7108 23.0704 15.1403ZM18.7957 16.3399C17.7074 16.8207 17.1033 17.8081 17.1033 19.1001C17.1033 19.5433 17.1854 19.9831 17.3309 20.3253C17.4096 20.5273 17.4969 20.683 17.656 20.902L17.7005 20.9585C17.8528 21.1587 17.9623 21.2768 18.0873 21.3829C18.5767 21.8004 19.2971 22.0297 20.1168 22.0297C20.5549 22.0297 20.9758 21.9596 21.342 21.8278C22.0539 21.5711 22.5724 21.092 22.8736 20.4126C23.0533 20.0071 23.1542 19.5176 23.1542 19.0522C23.1542 18.2702 22.8821 17.536 22.3893 16.9953C21.8229 16.3724 20.9433 16.0267 20.0192 16.0644C19.6719 16.0644 19.179 16.1739 18.7957 16.3399ZM32.9151 14.8169C33.6441 14.8186 33.9709 14.8511 34.32 14.9555C35.369 15.2687 36.0107 16.1722 36.0107 17.3341C36.0107 17.7551 35.9388 18.1076 35.7848 18.4533C35.4614 19.1788 34.9052 19.5382 33.8015 19.7367L36.382 23.2772H33.8751L31.618 19.8684H29.1914V23.2772H27.0798V14.8032L32.9151 14.8169ZM29.1914 18.3677H32.5899C32.797 18.3677 33.0092 18.354 33.1187 18.3318C33.6081 18.1932 33.8631 17.8612 33.8631 17.3615C33.8631 17.1271 33.7981 16.8841 33.6937 16.7232C33.5756 16.5418 33.4079 16.4237 33.1752 16.3587C33.0178 16.3159 32.8723 16.3005 32.5301 16.2903H29.1914V18.3677ZM38.7606 14.8032L41.016 17.9964C41.1581 18.1812 41.2026 18.2582 41.2573 18.4173C41.3087 18.2804 41.3549 18.2 41.4627 18.0563L43.766 14.8032H46.3465L42.3012 20.0978V23.2772H40.1895V20.0978L36.1544 14.8032H38.7606ZM81.6304 14.8888C82.1284 14.899 82.3491 14.911 82.5972 14.9435C82.96 14.9914 83.2595 15.077 83.5179 15.2122C84.1527 15.5613 84.4762 16.1551 84.4762 16.9662C84.4762 17.738 84.1254 18.3078 83.4563 18.6227L83.4238 18.6364C83.2886 18.6945 83.1996 18.7271 83.073 18.7664C83.4546 18.8622 83.5983 18.9085 83.7917 19.006C84.5258 19.3722 84.9074 20.0293 84.9074 20.9277C84.9074 21.7782 84.6182 22.4387 84.0603 22.8648C83.7694 23.0856 83.4392 23.2242 83.0404 23.296C82.7598 23.3474 82.4929 23.3628 81.9435 23.3628H76.1219V14.8888H81.6304ZM78.2216 18.2137H81.2573C81.5739 18.2137 81.7074 18.2017 81.8494 18.1624C82.0548 18.1059 82.2019 17.9895 82.3046 17.8064C82.3936 17.6593 82.4364 17.4864 82.4364 17.2674C82.4364 17.098 82.4141 16.9713 82.3662 16.8447C82.2362 16.5042 81.9418 16.345 81.4558 16.3536H78.2216V18.2137ZM78.2216 21.874H81.4165C81.7947 21.874 81.9624 21.8569 82.1472 21.7936C82.5647 21.6533 82.7957 21.2717 82.7957 20.7241C82.7957 20.4503 82.6948 20.1559 82.5425 19.9814C82.3542 19.7709 82.1626 19.7059 81.6663 19.6905L78.2216 19.7007V21.874ZM88.9664 14.8888V19.8821C88.9818 20.3014 89.0178 20.5495 89.0948 20.772C89.1975 21.0629 89.372 21.2905 89.6372 21.4804C90.065 21.785 90.6811 21.9407 91.4494 21.939H91.4751C92.1151 21.9373 92.6832 21.8175 93.0631 21.6036C93.3506 21.4411 93.5833 21.2066 93.7339 20.9277C93.8263 20.7412 93.852 20.606 93.876 20.1833V14.8888H95.9876L95.9791 19.8736C95.9774 20.4537 95.9654 20.6864 95.9226 20.9551C95.861 21.3333 95.7446 21.6533 95.5564 21.9596C95.4041 22.194 95.2381 22.3908 95.0516 22.5585C94.2884 23.243 92.9451 23.652 91.4631 23.652C90.8847 23.652 90.3234 23.5938 89.8067 23.4809C88.4514 23.1848 87.5153 22.514 87.0944 21.5369C86.9181 21.1296 86.8685 20.7583 86.8668 19.8103L86.8548 14.8888H88.9664ZM104.236 14.9025C104.973 14.9042 105.295 14.935 105.642 15.0394C106.691 15.3542 107.333 16.2578 107.333 17.4197C107.333 17.8441 107.263 18.1932 107.109 18.5388C106.784 19.2644 106.229 19.622 105.124 19.8222L107.706 23.3628H105.197L102.939 19.954H100.516V23.3628H98.4004V14.8888L104.236 14.9025ZM100.516 18.4533H103.912C104.121 18.4533 104.333 18.4396 104.443 18.4173C104.931 18.277 105.184 17.945 105.184 17.4471C105.184 17.2075 105.122 16.9696 105.018 16.8088C104.9 16.6274 104.73 16.5093 104.499 16.446C104.342 16.4015 104.195 16.3861 103.856 16.3758H100.516V18.4533ZM116.242 17.5532C115.977 17.1425 115.734 16.8858 115.391 16.653C114.919 16.3502 114.323 16.1842 113.695 16.1842C113.218 16.1842 112.77 16.2697 112.373 16.434C111.32 16.8721 110.684 17.8903 110.684 19.1395C110.684 19.7572 110.879 20.3972 111.211 20.8661C111.32 21.0287 111.524 21.2409 111.736 21.4103C112.297 21.8603 112.982 22.0913 113.755 22.0913C114.712 22.0913 115.477 21.7799 115.988 21.1793C116.124 21.0321 116.216 20.8901 116.423 20.5067L118.655 20.4811C118.555 20.8456 118.492 21.015 118.355 21.2871C118.148 21.6978 117.874 22.0417 117.476 22.3925C116.505 23.2464 115.251 23.652 113.576 23.652C112.16 23.652 110.978 23.3132 110.095 22.6595C109.043 21.8774 108.486 20.6522 108.486 19.1155C108.486 18.1692 108.726 17.2965 109.169 16.6291C109.327 16.3947 109.479 16.215 109.71 15.9942C109.95 15.7649 110.088 15.6554 110.312 15.5134C111.142 14.9521 112.385 14.6252 113.695 14.6252C114.989 14.6252 116.23 14.9624 117.114 15.5544C117.638 15.907 118.097 16.3912 118.391 16.9046L118.425 16.973C118.499 17.1236 118.53 17.1904 118.559 17.2657L116.242 17.5532ZM122.029 14.8888V18.1555H127.142V14.8888H129.266V23.3628H127.142V19.7264H122.029V23.3628H119.904V14.8888H122.029Z" fill="white"/>
</svg>
