<svg width="24" height="24" viewBox="0 0 24 24" fill="none" xmlns="http://www.w3.org/2000/svg">
<g clip-path="url(#clip0_4655_2376)">
<path fill-rule="evenodd" clip-rule="evenodd" d="M14.5255 2.34999C15.5743 1.94969 16.7207 1.88114 17.8097 2.15363C18.6758 2.37032 19.4722 2.79436 20.1326 3.38491C20.9448 3.08639 21.7151 2.68238 22.4236 2.18264L23 2.9998L23.9716 3.23642C23.629 4.64294 22.9424 5.93937 21.9769 7.01077C21.9917 7.17217 21.9994 7.33424 22 7.4965L22 7.4998C22 13.5997 19.0631 18.0748 14.8448 20.32C10.6509 22.5523 5.29085 22.5276 0.514338 19.874C0.109527 19.6491 -0.0879187 19.1757 0.0371299 18.7298C0.162178 18.2839 0.577005 17.9822 1.03973 18.0006C2.72654 18.0677 4.39635 17.7323 5.91472 17.0328C4.41157 16.1052 3.3294 15.004 2.57704 13.8161C1.57341 12.2314 1.19454 10.5527 1.12601 9.04521C1.05769 7.54209 1.29646 6.1887 1.54746 5.21817C1.67356 4.73058 1.8044 4.3333 1.90526 4.05433C1.95575 3.91469 1.99889 3.80421 2.03042 3.72638C2.04619 3.68745 2.05908 3.65665 2.06854 3.63439L2.08011 3.60747L2.08306 3.60071C2.09011 3.58453 2.0976 3.56849 2.10555 3.55259L2.99998 3.9998L3.81834 3.42509C4.73388 4.72877 5.95762 5.78579 7.38058 6.50202C8.51244 7.07171 9.74238 7.41172 10.9997 7.50622C10.9923 6.39655 11.322 5.31046 11.9456 4.39186C12.5761 3.46306 13.4767 2.7503 14.5255 2.34999ZM3.40463 6.04341C3.22094 6.84478 3.07425 7.86104 3.12395 8.95439C3.18043 10.1969 3.48906 11.5182 4.26667 12.746C5.04027 13.9675 6.31602 15.1571 8.40612 16.086C8.73792 16.2335 8.96372 16.5492 8.99602 16.9109C9.02831 17.2725 8.86204 17.6233 8.56161 17.8272C7.45067 18.5813 6.23418 19.1486 4.96008 19.5155C8.13025 20.3232 11.307 19.9374 13.9051 18.5546C17.4365 16.675 19.9995 12.9006 20 7.50147C19.9992 7.28537 19.9783 7.06981 19.9378 6.85755C19.8751 6.52969 19.9801 6.19218 20.2178 5.9578C20.4406 5.73811 20.6469 5.50396 20.8357 5.2573C20.6092 5.34086 20.3799 5.41758 20.1483 5.48733C19.7717 5.60074 19.3635 5.48283 19.1054 5.18604C18.6376 4.64812 18.0159 4.26686 17.3243 4.09382C16.6327 3.92078 15.9047 3.96431 15.2387 4.21852C14.5726 4.47273 14.0007 4.92535 13.6003 5.51518C13.1999 6.105 12.9903 6.80357 12.9999 7.5164L13.0001 7.5298L13 8.5298C13 9.07199 12.5679 9.51541 12.0259 9.52947C10.1037 9.57931 8.19897 9.15299 6.4814 8.28848C5.33583 7.71188 4.29723 6.95228 3.40463 6.04341Z" fill="#4F5B69"/>
</g>
<defs>
<clipPath id="clip0_4655_2376">
<rect width="24" height="24" fill="white"/>
</clipPath>
</defs>
</svg>
