<svg width="116" height="40" viewBox="0 0 116 40" fill="none" xmlns="http://www.w3.org/2000/svg">
<path d="M58.0222 26.5C60.9286 26.4867 63.1169 25.0283 63.1211 22.4032C63.1372 20.0588 60.6836 19.3856 58.4701 18.9559C56.6533 18.6059 55.0248 17.939 55.0066 16.3861C55.0066 16.3462 55.0066 16.3042 55.0101 16.2601C55.1025 15.0445 56.5162 14.3727 57.8269 14.3685C59.095 14.3643 60.0405 14.9046 60.8943 15.9116L62.2212 14.8668C60.2504 13.5294 59.3015 13.5063 57.8276 13.5C57.0004 13.4986 55.7687 13.7016 54.7673 14.2754C53.7609 14.8542 52.9862 15.7737 52.9834 17.2714V17.3316C52.9988 20.0273 56.1467 20.4997 57.1593 20.7047C58.384 20.9623 60.7501 21.492 60.776 23.5397C60.7578 24.9093 59.242 25.6336 58.0082 25.6364L57.9914 25.6378C56.9179 25.635 55.2446 25.4125 54.1074 23.8057L52.6594 24.9065C53.8337 25.896 55.2082 26.4951 58.0222 26.5ZM23.7376 26.1732H32.0383V25.3964H26.2108V20.1855H30.8864V19.4597L26.2108 19.4772V14.4763H32.0383V13.7044H23.7376V26.1732ZM83.3699 19.9853C83.3909 24.6909 85.7802 26.4524 89.6082 26.4769C92.4509 26.4741 93.7869 25.8086 94.4706 24.8729C94.8492 24.3508 94.9521 23.9547 94.971 23.4243H93.311C93.2158 24.8386 91.9841 25.98 90.3346 25.9814C89.3528 25.9814 88.2457 25.8324 87.3877 24.9989C86.5332 24.1661 85.9642 22.6852 85.9642 20.1071C85.9656 17.3407 86.5192 15.7835 87.2932 14.9102C88.0679 14.0368 89.0546 13.8891 89.8 13.8905C90.5705 13.8905 91.3319 14.1376 91.9141 14.6638C92.46 15.1656 92.8323 15.9228 92.8631 16.9271H94.9969C94.9171 15.0865 93.7708 13.5301 89.8 13.5042C85.7291 13.5371 83.3951 15.2776 83.3699 19.9853ZM11.7237 26.1732H14.0198L18.6709 13.7072H17.4574L13.616 24.4957L13.4537 24.9569L9.78098 13.7058H7.2644L11.7237 26.1732ZM42.2782 20.7138L45.636 26.1732H48.1567L44.7486 20.641L44.6422 20.4661L44.8346 20.394C45.9922 19.9713 47.5962 19.0573 47.5934 17.0327C47.585 15.0249 46.0761 13.7233 42.0241 13.7044L37.2856 13.7037V26.1718H39.7574V20.7131L42.2782 20.7138ZM41.4531 20.1526L39.7574 20.1491V14.3041H41.7876C43.7688 14.3069 45.0642 15.5631 45.0677 17.0775C45.0635 18.5871 43.7254 20.1498 41.4531 20.1526ZM75.8377 21.8112L77.6307 26.1725H79.9702L74.6606 13.7058H72.3477L66.5741 26.1725H67.6672L69.6764 21.9049L69.7191 21.8084L75.8377 21.8112ZM70.0403 21.1078L72.8033 15.1866L72.9635 14.8444L75.555 21.1078H70.0403ZM100.43 26.1753H108.731V25.3957H102.904V20.1834H107.58V19.459L102.904 19.4765V14.4756H108.732V13.7058H100.43V26.1753Z" fill="white"/>
</svg>
